<svg width="4165" height="1063" viewBox="0 0 4165 1063" fill="none" xmlns="http://www.w3.org/2000/svg">
<path fill-rule="evenodd" clip-rule="evenodd" d="M259.646 1043.13C259.646 1043.13 137.816 1006.46 59.0179 878.863C-7.55259 771.066 -37.7657 590.567 77.5008 438.537C305.258 138.137 319.605 0 319.605 0C319.605 0 741.689 351.187 510.693 662.724C356.135 871.171 459.379 1062.21 459.379 1062.21C459.379 1062.21 212.246 826.691 317.479 647.222C419.554 473.139 341.963 369.075 341.963 369.075C341.963 369.075 211.484 490.41 163.953 647.222C116.421 804.034 259.646 1043.13 259.646 1043.13Z" fill="#265780"/>
<path d="M761.983 835.072C855.601 591.378 703.781 422.461 703.781 422.461C703.781 422.461 701.499 606.579 548.681 741.527C461.288 818.701 434.547 912.152 501.554 968.239C586.263 1039.14 720.827 942.203 761.983 835.072Z" fill="#FFB805"/>
<path d="M1102.48 122.496H1179.09V354.89H1206.68L1416.61 122.496H1513.15L1274.87 387.104L1516.22 659.381H1415.85L1205.91 419.317H1179.09V659.381H1102.48V122.496Z" fill="black"/>
<path d="M1549.82 275.892H1615.71L1620.31 327.279C1631.03 313.985 1643.29 302.992 1657.08 294.299C1671.39 285.095 1686.71 278.704 1703.06 275.125C1719.91 271.545 1737.28 271.801 1755.16 275.892V344.153C1738.3 340.062 1721.96 339.551 1706.12 342.619C1690.29 345.687 1675.98 352.334 1663.21 362.56C1650.96 372.275 1641 385.314 1633.33 401.676C1625.67 418.038 1621.84 437.724 1621.84 460.734V659.381H1549.82V275.892Z" fill="black"/>
<path d="M1963.77 664.75C1927 664.75 1894.31 656.313 1865.7 639.44C1837.61 622.055 1815.39 598.278 1799.04 568.111C1783.21 537.943 1775.29 503.429 1775.29 464.568C1775.29 427.242 1783.21 394.006 1799.04 364.861C1814.88 335.716 1836.59 312.707 1864.17 295.833C1892.26 278.96 1923.93 270.523 1959.18 270.523C1994.93 270.523 2026.6 278.448 2054.18 294.299C2081.77 309.639 2103.22 331.37 2118.54 359.492C2133.87 387.104 2141.27 419.061 2140.76 455.365C2140.76 461.501 2140.51 467.892 2140 474.539C2139.48 480.675 2138.72 487.578 2137.7 495.248H1854.21C1855.74 515.7 1861.36 533.852 1871.07 549.703C1881.28 565.043 1894.05 577.059 1909.37 585.751C1925.21 594.444 1943.09 598.79 1963.01 598.79C1988.55 598.79 2010.77 593.932 2029.67 584.217C2048.56 573.991 2061.84 560.441 2069.51 543.567L2132.33 565.81C2117.01 597 2094.54 621.288 2064.91 638.673C2035.79 656.058 2002.08 664.75 1963.77 664.75ZM2061.84 433.122C2061.84 414.715 2057.25 398.097 2048.05 383.269C2038.86 368.44 2026.34 356.936 2010.51 348.755C1995.19 340.062 1977.82 335.716 1958.41 335.716C1941.04 335.716 1924.95 340.062 1910.14 348.755C1895.84 356.936 1883.58 368.44 1873.36 383.269C1863.66 397.586 1857.53 414.203 1854.98 433.122H2061.84Z" fill="black"/>
<path d="M2432.28 659.381L2426.15 603.392C2414.4 622.822 2399.07 637.906 2380.18 648.643C2361.79 658.87 2337.78 663.983 2308.15 663.983C2280.57 663.983 2257.08 659.637 2237.67 650.944C2218.26 641.741 2203.19 629.213 2192.46 613.362C2182.25 597 2177.14 578.081 2177.14 556.606C2177.14 524.393 2189.14 497.804 2213.15 476.84C2237.15 455.365 2271.89 442.07 2317.35 436.957L2426.15 424.686V394.773C2426.15 378.411 2419.51 364.605 2406.23 353.356C2392.95 341.596 2373.79 335.716 2348.76 335.716C2325.27 335.716 2305.35 341.34 2289 352.59C2272.65 363.327 2261.67 379.434 2256.05 400.909L2191.69 377.9C2201.4 344.153 2220.3 317.82 2248.39 298.901C2277 279.982 2311.47 270.523 2351.83 270.523C2399.84 270.523 2436.36 282.539 2461.39 306.571C2486.42 330.603 2498.93 362.305 2498.93 401.676V659.381H2432.28ZM2426.15 483.743L2321.18 496.782C2298.7 499.849 2281.85 506.241 2270.61 515.956C2259.37 525.16 2253.76 537.431 2253.76 552.771C2253.76 567.088 2259.12 579.104 2269.85 588.819C2281.08 598.023 2296.66 602.625 2316.58 602.625C2341.1 602.625 2361.53 598.023 2377.88 588.819C2394.22 579.615 2406.23 566.832 2413.89 550.47C2422.06 533.597 2426.15 514.166 2426.15 492.18V483.743Z" fill="black"/>
<path d="M2614.89 538.198C2618.47 553.538 2624.6 565.554 2633.28 574.246C2641.96 582.939 2652.18 589.33 2663.93 593.421C2676.19 597 2688.96 598.79 2702.24 598.79C2725.22 598.79 2743.1 594.188 2755.87 584.984C2768.64 575.78 2775.02 564.276 2775.02 550.47C2775.02 538.71 2770.94 529.506 2762.76 522.859C2755.1 515.7 2744.63 510.076 2731.35 505.985C2718.58 501.895 2704.79 498.06 2689.98 494.481C2676.7 490.901 2662.14 486.811 2646.3 482.209C2630.98 477.607 2616.42 471.471 2602.63 463.801C2589.35 455.62 2578.37 445.394 2569.69 433.122C2561 420.339 2556.66 404.233 2556.66 384.803C2556.66 361.793 2562.79 341.852 2575.05 324.978C2587.82 307.593 2605.19 294.299 2627.15 285.095C2649.62 275.38 2674.91 270.523 2703 270.523C2735.69 270.523 2764.3 277.681 2788.81 291.998C2813.84 305.804 2831.98 326.768 2843.21 354.89L2778.09 376.366C2774.51 366.651 2768.64 358.725 2760.47 352.59C2752.29 346.454 2742.84 342.363 2732.12 340.318C2721.9 337.761 2711.69 336.483 2701.47 336.483C2682.06 336.483 2665.97 340.318 2653.2 347.988C2640.43 355.657 2634.05 366.906 2634.05 381.735C2634.05 389.916 2636.09 396.819 2640.17 402.443C2644.26 407.556 2649.88 411.903 2657.03 415.482C2664.69 418.55 2673.63 421.362 2683.85 423.919C2694.06 426.475 2705.04 429.287 2716.79 432.355C2732.12 436.957 2747.7 442.07 2763.53 447.695C2779.36 452.808 2793.92 459.455 2807.2 467.636C2820.48 475.817 2831.21 486.555 2839.38 499.849C2847.55 513.144 2851.9 529.506 2852.41 548.936C2852.41 571.434 2846.02 591.376 2833.25 608.76C2820.99 626.145 2803.37 639.951 2780.39 650.177C2757.91 659.892 2731.1 664.75 2699.94 664.75C2662.14 664.75 2629.96 656.313 2603.4 639.44C2576.84 622.566 2558.96 596.489 2549.77 561.208L2614.89 538.198Z" fill="black"/>
<path d="M2920.96 275.892H2993.74V659.381H2920.96V275.892ZM2957.73 208.397C2943.94 208.397 2932.45 203.796 2923.26 194.592C2914.06 185.388 2909.46 174.139 2909.46 160.845C2909.46 147.039 2914.06 135.534 2923.26 126.331C2932.45 116.616 2943.94 111.758 2957.73 111.758C2971.01 111.758 2982.25 116.616 2991.45 126.331C3001.15 135.534 3006 147.039 3006 160.845C3006 174.139 3001.15 185.388 2991.45 194.592C2982.25 203.796 2971.01 208.397 2957.73 208.397Z" fill="black"/>
<path d="M3083.83 107.156H3156.62V436.19H3188.03L3331.31 275.892H3429.38L3251.62 467.636L3430.14 659.381H3331.31L3188.03 498.316H3156.62V659.381H3083.83V107.156Z" fill="black"/>
<path d="M3699.14 659.381L3693.01 603.392C3681.26 622.822 3665.94 637.906 3647.04 648.643C3628.65 658.87 3604.64 663.983 3575.02 663.983C3547.44 663.983 3523.94 659.637 3504.53 650.944C3485.12 641.741 3470.05 629.213 3459.33 613.362C3449.11 597 3444 578.081 3444 556.606C3444 524.393 3456.01 497.804 3480.01 476.84C3504.02 455.365 3538.75 442.07 3584.21 436.957L3693.01 424.686V394.773C3693.01 378.411 3686.37 364.605 3673.09 353.356C3659.81 341.596 3640.66 335.716 3615.63 335.716C3592.13 335.716 3572.21 341.34 3555.86 352.59C3539.52 363.327 3528.54 379.434 3522.92 400.909L3458.56 377.9C3468.26 344.153 3487.16 317.82 3515.26 298.901C3543.86 279.982 3578.34 270.523 3618.69 270.523C3666.71 270.523 3703.23 282.539 3728.26 306.571C3753.28 330.603 3765.8 362.305 3765.8 401.676V659.381H3699.14ZM3693.01 483.743L3588.04 496.782C3565.57 499.849 3548.71 506.241 3537.48 515.956C3526.24 525.16 3520.62 537.431 3520.62 552.771C3520.62 567.088 3525.98 579.104 3536.71 588.819C3547.95 598.023 3563.53 602.625 3583.45 602.625C3607.96 602.625 3628.4 598.023 3644.74 588.819C3661.09 579.615 3673.09 566.832 3680.75 550.47C3688.92 533.597 3693.01 514.166 3693.01 492.18V483.743Z" fill="black"/>
<path d="M3838.85 275.892H3904.74L3909.34 320.376C3921.6 304.525 3937.18 292.254 3956.08 283.561C3974.97 274.869 3995.92 270.523 4018.9 270.523C4048.53 270.523 4074.07 276.914 4095.52 289.697C4117.48 301.969 4134.34 320.376 4146.09 344.92C4158.35 369.463 4164.48 400.142 4164.48 436.957V659.381H4092.46V446.161C4092.46 410.369 4084.79 383.269 4069.47 364.861C4054.66 345.942 4032.95 336.483 4004.34 336.483C3974.72 336.483 3951.73 346.198 3935.39 365.628C3919.04 384.547 3910.87 412.67 3910.87 449.996V939.156H3838.85V275.892Z" fill="black"/>
<path d="M1183.56 809.075H1117.04V851.11H1167.06V863.422H1117.04V907.567H1183.56V919.879H1103V796.763H1183.56V809.075Z" fill="black"/>
<path d="M1199.25 865.005H1268.4V876.964H1199.25V865.005Z" fill="black"/>
<path d="M1353.79 849.703L1352.38 849.879V793.246H1365.54V919.879H1353.43L1352.56 903.522C1349.87 908.447 1345.83 912.609 1340.45 916.01C1335.18 919.41 1328.63 921.11 1320.79 921.11C1312.72 921.11 1305.64 919.293 1299.55 915.658C1293.58 911.906 1288.9 906.629 1285.51 899.829C1282.23 893.028 1280.6 885.055 1280.6 875.909C1280.6 866.763 1282.23 858.849 1285.51 852.165C1288.9 845.365 1293.58 840.088 1299.55 836.336C1305.64 832.584 1312.72 830.708 1320.79 830.708C1329.1 830.708 1336 832.526 1341.5 836.16C1347 839.795 1351.09 844.309 1353.79 849.703ZM1294.81 875.909C1294.81 885.993 1297.39 894.025 1302.54 900.005C1307.68 905.867 1314.7 908.798 1323.6 908.798C1329.1 908.798 1334.01 907.509 1338.34 904.929C1342.67 902.35 1346.06 898.597 1348.52 893.673C1351.09 888.748 1352.38 882.827 1352.38 875.909C1352.38 868.991 1351.09 863.129 1348.52 858.321C1346.06 853.397 1342.67 849.644 1338.34 847.065C1334.01 844.368 1329.1 843.02 1323.6 843.02C1314.82 843.02 1307.8 846.01 1302.54 851.99C1297.39 857.852 1294.81 865.825 1294.81 875.909Z" fill="black"/>
<path d="M1388.09 831.939H1401.08V919.879H1388.09V831.939ZM1394.76 814.351C1392.07 814.351 1389.84 813.472 1388.09 811.713C1386.33 809.954 1385.46 807.785 1385.46 805.206C1385.46 802.509 1386.33 800.281 1388.09 798.522C1389.84 796.763 1392.07 795.884 1394.76 795.884C1397.22 795.884 1399.32 796.763 1401.08 798.522C1402.95 800.281 1403.89 802.509 1403.89 805.206C1403.89 807.785 1402.95 809.954 1401.08 811.713C1399.32 813.472 1397.22 814.351 1394.76 814.351Z" fill="black"/>
<path d="M1423.69 831.939H1435.8L1436.5 844.778C1438.84 841.613 1441.65 838.916 1444.92 836.688C1448.32 834.46 1452 832.936 1455.98 832.115C1460.08 831.177 1464.4 831.119 1468.97 831.939V845.13C1464.05 844.192 1459.61 844.192 1455.63 845.13C1451.77 846.068 1448.43 847.827 1445.62 850.407C1442.82 852.986 1440.65 856.269 1439.13 860.256C1437.61 864.125 1436.85 868.639 1436.85 873.799V919.879H1423.69V831.939Z" fill="black"/>
<path d="M1516.77 921.11C1508.58 921.11 1501.27 919.117 1494.83 915.13C1488.51 911.144 1483.54 905.691 1479.91 898.773C1476.28 891.855 1474.47 883.941 1474.47 875.03C1474.47 866.47 1476.28 858.849 1479.91 852.165C1483.54 845.482 1488.51 840.264 1494.83 836.512C1501.15 832.643 1508.35 830.708 1516.42 830.708C1524.38 830.708 1531.45 832.467 1537.66 835.984C1543.97 839.502 1548.89 844.368 1552.4 850.582C1555.91 856.797 1557.55 863.891 1557.31 871.864C1557.31 873.154 1557.26 874.502 1557.14 875.909C1557.02 877.316 1556.9 878.84 1556.79 880.482H1488.86C1489.1 885.993 1490.44 890.859 1492.9 895.08C1495.36 899.301 1498.57 902.643 1502.55 905.105C1506.65 907.45 1511.27 908.623 1516.42 908.623C1523.21 908.623 1528.94 907.333 1533.62 904.753C1538.42 902.174 1541.87 898.48 1543.97 893.673L1555.38 898.246C1551.87 905.633 1546.78 911.319 1540.11 915.306C1533.44 919.175 1525.66 921.11 1516.77 921.11ZM1542.92 869.05C1543.04 864.008 1541.93 859.552 1539.59 855.683C1537.36 851.814 1534.2 848.765 1530.11 846.537C1526.01 844.309 1521.27 843.196 1515.89 843.196C1511.21 843.196 1506.94 844.309 1503.08 846.537C1499.22 848.765 1496 851.872 1493.43 855.859C1490.97 859.728 1489.51 864.125 1489.04 869.05H1542.92Z" fill="black"/>
<path d="M1609.35 921.11C1600.8 921.11 1593.32 919.234 1586.88 915.482C1580.44 911.73 1575.41 906.512 1571.79 899.829C1568.27 893.028 1566.52 885.172 1566.52 876.261C1566.52 867.232 1568.27 859.318 1571.79 852.517C1575.41 845.599 1580.44 840.264 1586.88 836.512C1593.32 832.643 1600.8 830.708 1609.35 830.708C1618.36 830.708 1626.25 832.819 1633.04 837.04C1639.83 841.144 1644.74 846.889 1647.78 854.276L1635.67 858.497C1633.92 853.807 1630.7 850.113 1626.02 847.417C1621.46 844.603 1616.13 843.196 1610.05 843.196C1604.08 843.196 1598.87 844.544 1594.43 847.241C1590.1 849.938 1586.7 853.748 1584.25 858.673C1581.91 863.598 1580.74 869.402 1580.74 876.085C1580.74 885.934 1583.37 893.849 1588.63 899.829C1593.9 905.691 1600.92 908.623 1609.7 908.623C1615.66 908.623 1620.99 907.274 1625.67 904.577C1630.35 901.881 1633.8 898.246 1636.02 893.673L1647.96 897.894C1644.8 905.164 1639.83 910.85 1633.04 914.954C1626.25 919.058 1618.36 921.11 1609.35 921.11Z" fill="black"/>
<path d="M1668.08 831.939V807.316H1681.25V831.939H1704.59V844.251H1681.25V891.562C1681.25 896.956 1682.36 900.884 1684.58 903.346C1686.92 905.809 1689.85 907.274 1693.36 907.743C1696.99 908.212 1700.73 908.212 1704.59 907.743V919.175C1700.03 920.231 1695.52 920.524 1691.08 920.055C1686.75 919.586 1682.83 918.296 1679.32 916.185C1675.92 913.958 1673.17 910.85 1671.07 906.864C1669.08 902.877 1668.08 897.777 1668.08 891.562V844.251H1654.92V831.939H1668.08Z" fill="black"/>
<path d="M1755.06 921.11C1746.75 921.11 1739.32 919.293 1732.77 915.658C1726.22 912.023 1721.07 906.864 1717.33 900.18C1713.58 893.38 1711.71 885.348 1711.71 876.085C1711.71 866.705 1713.58 858.614 1717.33 851.814C1721.19 845.013 1726.39 839.795 1732.95 836.16C1739.62 832.526 1747.11 830.708 1755.41 830.708C1763.72 830.708 1771.15 832.526 1777.7 836.16C1784.37 839.795 1789.58 845.013 1793.32 851.814C1797.19 858.497 1799.12 866.47 1799.12 875.733C1799.12 885.113 1797.19 893.204 1793.32 900.005C1789.46 906.805 1784.2 912.023 1777.53 915.658C1770.86 919.293 1763.37 921.11 1755.06 921.11ZM1754.89 908.623C1760.04 908.623 1764.89 907.509 1769.45 905.281C1774.02 902.936 1777.7 899.36 1780.51 894.552C1783.44 889.628 1784.9 883.413 1784.9 875.909C1784.9 868.288 1783.5 862.073 1780.69 857.266C1777.88 852.459 1774.19 848.941 1769.63 846.713C1765.18 844.368 1760.39 843.196 1755.24 843.196C1750.09 843.196 1745.29 844.368 1740.85 846.713C1736.4 848.941 1732.77 852.517 1729.96 857.442C1727.27 862.249 1725.93 868.405 1725.93 875.909C1725.93 883.531 1727.27 889.745 1729.96 894.552C1732.65 899.36 1736.17 902.936 1740.49 905.281C1744.94 907.509 1749.74 908.623 1754.89 908.623Z" fill="black"/>
<path d="M1813.66 831.939H1825.77L1826.47 844.778C1828.81 841.613 1831.62 838.916 1834.89 836.688C1838.29 834.46 1841.97 832.936 1845.95 832.115C1850.05 831.177 1854.38 831.119 1858.94 831.939V845.13C1854.02 844.192 1849.58 844.192 1845.6 845.13C1841.74 846.068 1838.4 847.827 1835.6 850.407C1832.79 852.986 1830.62 856.269 1829.1 860.256C1827.58 864.125 1826.82 868.639 1826.82 873.799V919.879H1813.66V831.939Z" fill="black"/>
<path d="M1929.38 831.939H1943.07L1892.88 955.055H1880.24L1895.16 918.648L1859.7 831.939H1874.1L1902.18 902.994L1929.38 831.939Z" fill="black"/>
<path d="M2076.98 809.075H2010.46V851.11H2060.49V863.422H2010.46V907.567H2076.98V919.879H1996.42V796.763H2076.98V809.075Z" fill="black"/>
<path d="M2094.95 793.246H2108.29V870.105H2116.37L2150.94 831.939H2169.55L2128.12 875.909L2169.72 919.879H2150.94L2116.37 881.537H2108.29V919.879H2094.95V793.246Z" fill="black"/>
<path d="M2216.69 921.11C2208.38 921.11 2200.95 919.293 2194.4 915.658C2187.84 912.023 2182.69 906.864 2178.95 900.18C2175.21 893.38 2173.33 885.348 2173.33 876.085C2173.33 866.705 2175.21 858.614 2178.95 851.814C2182.81 845.013 2188.02 839.795 2194.57 836.16C2201.24 832.526 2208.73 830.708 2217.04 830.708C2225.34 830.708 2232.77 832.526 2239.33 836.16C2246 839.795 2251.2 845.013 2254.95 851.814C2258.81 858.497 2260.74 866.47 2260.74 875.733C2260.74 885.113 2258.81 893.204 2254.95 900.005C2251.09 906.805 2245.82 912.023 2239.15 915.658C2232.48 919.293 2224.99 921.11 2216.69 921.11ZM2216.51 908.623C2221.66 908.623 2226.51 907.509 2231.08 905.281C2235.64 902.936 2239.33 899.36 2242.14 894.552C2245.06 889.628 2246.52 883.413 2246.52 875.909C2246.52 868.288 2245.12 862.073 2242.31 857.266C2239.5 852.459 2235.82 848.941 2231.25 846.713C2226.81 844.368 2222.01 843.196 2216.86 843.196C2211.71 843.196 2206.92 844.368 2202.47 846.713C2198.02 848.941 2194.4 852.517 2191.59 857.442C2188.9 862.249 2187.55 868.405 2187.55 875.909C2187.55 883.531 2188.9 889.745 2191.59 894.552C2194.28 899.36 2197.79 902.936 2202.12 905.281C2206.56 907.509 2211.36 908.623 2216.51 908.623Z" fill="black"/>
<path d="M2275.28 831.939H2287.39L2288.09 844.427C2290.9 840.088 2294.59 836.747 2299.15 834.402C2303.71 831.939 2309.04 830.708 2315.12 830.708C2321.79 830.708 2327.64 832.174 2332.67 835.105C2337.7 837.919 2341.62 842.199 2344.43 847.944C2347.24 853.572 2348.65 860.666 2348.65 869.226V919.879H2335.48V870.809C2335.48 861.663 2333.49 854.745 2329.51 850.055C2325.65 845.247 2320.04 842.844 2312.66 842.844C2305.06 842.844 2299.09 845.365 2294.76 850.407C2290.55 855.448 2288.44 862.894 2288.44 872.743V919.879H2275.28V831.939Z" fill="black"/>
<path d="M2405.07 921.11C2396.76 921.11 2389.33 919.293 2382.78 915.658C2376.23 912.023 2371.08 906.864 2367.33 900.18C2363.59 893.38 2361.72 885.348 2361.72 876.085C2361.72 866.705 2363.59 858.614 2367.33 851.814C2371.19 845.013 2376.4 839.795 2382.95 836.16C2389.62 832.526 2397.11 830.708 2405.42 830.708C2413.73 830.708 2421.16 832.526 2427.71 836.16C2434.38 839.795 2439.59 845.013 2443.33 851.814C2447.19 858.497 2449.12 866.47 2449.12 875.733C2449.12 885.113 2447.19 893.204 2443.33 900.005C2439.47 906.805 2434.2 912.023 2427.53 915.658C2420.86 919.293 2413.38 921.11 2405.07 921.11ZM2404.89 908.623C2410.04 908.623 2414.9 907.509 2419.46 905.281C2424.02 902.936 2427.71 899.36 2430.52 894.552C2433.44 889.628 2434.91 883.413 2434.91 875.909C2434.91 868.288 2433.5 862.073 2430.69 857.266C2427.89 852.459 2424.2 848.941 2419.64 846.713C2415.19 844.368 2410.39 843.196 2405.24 843.196C2400.1 843.196 2395.3 844.368 2390.85 846.713C2386.41 848.941 2382.78 852.517 2379.97 857.442C2377.28 862.249 2375.93 868.405 2375.93 875.909C2375.93 883.531 2377.28 889.745 2379.97 894.552C2382.66 899.36 2386.17 902.936 2390.5 905.281C2394.95 907.509 2399.74 908.623 2404.89 908.623Z" fill="black"/>
<path d="M2463.66 831.939H2475.77L2476.65 844.603C2479.23 840.381 2482.68 837.04 2487.01 834.577C2491.45 831.998 2496.72 830.708 2502.8 830.708C2509 830.708 2514.62 832.232 2519.65 835.281C2524.8 838.212 2528.78 842.609 2531.59 848.472C2534.28 842.492 2538.37 838.036 2543.87 835.105C2549.37 832.174 2555.46 830.708 2562.13 830.708C2568.68 830.708 2574.47 832.174 2579.5 835.105C2584.53 837.919 2588.45 842.199 2591.26 847.944C2594.07 853.572 2595.47 860.666 2595.47 869.226V919.879H2582.31V870.809C2582.31 861.663 2580.32 854.745 2576.34 850.055C2572.48 845.247 2566.92 842.844 2559.67 842.844C2552.3 842.844 2546.45 845.423 2542.12 850.582C2537.79 855.624 2535.62 863.129 2535.62 873.095V919.879H2522.46V870.809C2522.46 861.663 2520.59 854.745 2516.84 850.055C2513.1 845.247 2507.6 842.844 2500.35 842.844C2492.97 842.844 2487.18 845.423 2482.97 850.582C2478.87 855.624 2476.83 863.129 2476.83 873.095V919.879H2463.66V831.939Z" fill="black"/>
<path d="M2616.62 831.939H2629.61V919.879H2616.62V831.939ZM2623.29 814.351C2620.6 814.351 2618.38 813.472 2616.62 811.713C2614.87 809.954 2613.99 807.785 2613.99 805.206C2613.99 802.509 2614.87 800.281 2616.62 798.522C2618.38 796.763 2620.6 795.884 2623.29 795.884C2625.75 795.884 2627.85 796.763 2629.61 798.522C2631.48 800.281 2632.42 802.509 2632.42 805.206C2632.42 807.785 2631.48 809.954 2629.61 811.713C2627.85 813.472 2625.75 814.351 2623.29 814.351Z" fill="black"/>
<path d="M2695.79 796.763H2709.83V851.11H2715.8L2766.53 796.763H2784.6L2728.09 857.266L2785.13 919.879H2766.53L2715.63 863.422H2709.83V919.879H2695.79V796.763Z" fill="black"/>
<path d="M2793.98 831.939H2806.09L2806.79 844.778C2809.13 841.613 2811.94 838.916 2815.22 836.688C2818.61 834.46 2822.3 832.936 2826.27 832.115C2830.37 831.177 2834.7 831.119 2839.26 831.939V845.13C2834.35 844.192 2829.9 844.192 2825.92 845.13C2822.06 846.068 2818.73 847.827 2815.92 850.407C2813.11 852.986 2810.95 856.269 2809.43 860.256C2807.9 864.125 2807.14 868.639 2807.14 873.799V919.879H2793.98V831.939Z" fill="black"/>
<path d="M2887.06 921.11C2878.87 921.11 2871.56 919.117 2865.12 915.13C2858.81 911.144 2853.83 905.691 2850.21 898.773C2846.58 891.855 2844.77 883.941 2844.77 875.03C2844.77 866.47 2846.58 858.849 2850.21 852.165C2853.83 845.482 2858.81 840.264 2865.12 836.512C2871.44 832.643 2878.64 830.708 2886.71 830.708C2894.67 830.708 2901.75 832.467 2907.95 835.984C2914.27 839.502 2919.18 844.368 2922.69 850.582C2926.2 856.797 2927.84 863.891 2927.61 871.864C2927.61 873.154 2927.55 874.502 2927.43 875.909C2927.32 877.316 2927.2 878.84 2927.08 880.482H2859.16C2859.39 885.993 2860.74 890.859 2863.19 895.08C2865.65 899.301 2868.87 902.643 2872.85 905.105C2876.94 907.45 2881.56 908.623 2886.71 908.623C2893.5 908.623 2899.23 907.333 2903.91 904.753C2908.71 902.174 2912.16 898.48 2914.27 893.673L2925.68 898.246C2922.17 905.633 2917.08 911.319 2910.41 915.306C2903.74 919.175 2895.96 921.11 2887.06 921.11ZM2913.22 869.05C2913.33 864.008 2912.22 859.552 2909.88 855.683C2907.66 851.814 2904.5 848.765 2900.4 846.537C2896.31 844.309 2891.57 843.196 2886.19 843.196C2881.51 843.196 2877.24 844.309 2873.37 846.537C2869.51 848.765 2866.3 851.872 2863.72 855.859C2861.26 859.728 2859.8 864.125 2859.33 869.05H2913.22Z" fill="black"/>
<path d="M2997.19 919.879L2996.14 904.05C2993.68 909.443 2990.05 913.664 2985.26 916.713C2980.46 919.644 2974.37 921.11 2967 921.11C2960.68 921.11 2955.3 920.113 2950.86 918.12C2946.41 916.127 2942.96 913.313 2940.5 909.678C2938.16 905.926 2936.99 901.529 2936.99 896.487C2936.99 889.1 2939.74 883.061 2945.24 878.371C2950.74 873.564 2958.7 870.633 2969.11 869.577L2996.14 866.587V859.552C2996.14 854.628 2994.32 850.7 2990.7 847.768C2987.07 844.72 2982.16 843.196 2975.95 843.196C2969.87 843.196 2964.78 844.603 2960.68 847.417C2956.71 850.231 2953.96 854.276 2952.44 859.552L2940.5 855.331C2942.84 847.593 2947.11 841.554 2953.31 837.216C2959.63 832.877 2967.3 830.708 2976.31 830.708C2986.72 830.708 2994.79 833.405 3000.53 838.799C3006.38 844.075 3009.3 851.286 3009.3 860.432V919.879H2997.19ZM2996.14 877.844L2968.93 881.01C2963.08 881.713 2958.64 883.355 2955.59 885.934C2952.55 888.396 2951.03 891.68 2951.03 895.783C2951.03 899.887 2952.49 903.17 2955.42 905.633C2958.46 908.095 2962.79 909.326 2968.41 909.326C2974.84 909.326 2980.11 908.036 2984.2 905.457C2988.3 902.877 2991.28 899.418 2993.15 895.08C2995.14 890.624 2996.14 885.817 2996.14 880.658V877.844Z" fill="black"/>
<path d="M3033.58 831.939V807.316H3046.74V831.939H3070.09V844.251H3046.74V891.562C3046.74 896.956 3047.85 900.884 3050.08 903.346C3052.42 905.809 3055.34 907.274 3058.85 907.743C3062.48 908.212 3066.22 908.212 3070.09 907.743V919.175C3065.52 920.231 3061.02 920.524 3056.57 920.055C3052.24 919.586 3048.32 918.296 3044.81 916.185C3041.42 913.958 3038.67 910.85 3036.56 906.864C3034.57 902.877 3033.58 897.777 3033.58 891.562V844.251H3020.42V831.939H3033.58Z" fill="black"/>
<path d="M3085.28 831.939H3098.27V919.879H3085.28V831.939ZM3091.95 814.351C3089.26 814.351 3087.03 813.472 3085.28 811.713C3083.52 809.954 3082.65 807.785 3082.65 805.206C3082.65 802.509 3083.52 800.281 3085.28 798.522C3087.03 796.763 3089.26 795.884 3091.95 795.884C3094.41 795.884 3096.51 796.763 3098.27 798.522C3100.14 800.281 3101.08 802.509 3101.08 805.206C3101.08 807.785 3100.14 809.954 3098.27 811.713C3096.51 813.472 3094.41 814.351 3091.95 814.351Z" fill="black"/>
<path d="M3125.61 821.562C3125.61 815.114 3126.67 809.661 3128.77 805.206C3130.88 800.75 3134.21 797.526 3138.78 795.532C3143.46 793.422 3149.66 792.66 3157.38 793.246V805.03C3150.36 804.443 3145.51 805.616 3142.81 808.547C3140.12 811.361 3138.78 815.7 3138.78 821.562V831.939H3158.08V844.251H3138.78V919.879H3125.61V844.251H3113.33V831.939H3125.61V821.562Z" fill="black"/>
<path d="M3308.24 796.763V919.879H3294.02L3228.38 819.276V919.879H3214.34V796.763H3228.55L3294.19 897.19V796.763H3308.24Z" fill="black"/>
<path d="M3397.06 831.939H3409.17V903.698C3409.17 914.485 3406.77 923.69 3401.97 931.311C3397.18 939.05 3390.21 944.912 3381.09 948.899C3371.96 953.003 3360.85 955.055 3347.74 955.055L3345.63 942.919C3362.13 942.685 3374.65 939.226 3383.19 932.542C3391.74 925.976 3396.01 916.361 3396.01 903.698V901.763L3397.41 902.115C3394.72 907.274 3390.68 911.73 3385.3 915.482C3379.92 919.117 3372.96 920.993 3364.41 921.11C3356.34 921.11 3349.26 919.293 3343.18 915.658C3337.21 911.906 3332.53 906.629 3329.14 899.829C3325.86 893.028 3324.22 885.055 3324.22 875.909C3324.22 866.763 3325.86 858.849 3329.14 852.165C3332.53 845.365 3337.21 840.088 3343.18 836.336C3349.26 832.584 3356.34 830.708 3364.41 830.708C3369.68 830.708 3374.36 831.529 3378.46 833.17C3382.55 834.695 3386.06 836.805 3388.99 839.502C3391.91 842.082 3394.31 845.013 3396.18 848.296L3397.06 831.939ZM3338.44 875.909C3338.44 885.993 3341.01 894.025 3346.16 900.005C3351.43 905.867 3358.5 908.798 3367.4 908.798C3372.78 908.798 3377.64 907.509 3381.97 904.929C3386.29 902.35 3389.69 898.597 3392.15 893.673C3394.72 888.748 3396.01 882.827 3396.01 875.909C3396.01 868.991 3394.72 863.129 3392.15 858.321C3389.69 853.397 3386.29 849.644 3381.97 847.065C3377.64 844.368 3372.78 843.02 3367.4 843.02C3358.62 843.02 3351.6 846.01 3346.34 851.99C3341.07 857.969 3338.44 865.943 3338.44 875.909Z" fill="black"/>
<path d="M3484.02 919.879L3482.96 904.05C3480.51 909.443 3476.88 913.664 3472.08 916.713C3467.29 919.644 3461.2 921.11 3453.83 921.11C3447.51 921.11 3442.13 920.113 3437.68 918.12C3433.24 916.127 3429.78 913.313 3427.33 909.678C3424.99 905.926 3423.82 901.529 3423.82 896.487C3423.82 889.1 3426.57 883.061 3432.07 878.371C3437.56 873.564 3445.52 870.633 3455.94 869.577L3482.96 866.587V859.552C3482.96 854.628 3481.15 850.7 3477.52 847.768C3473.9 844.72 3468.98 843.196 3462.78 843.196C3456.7 843.196 3451.61 844.603 3447.51 847.417C3443.53 850.231 3440.78 854.276 3439.26 859.552L3427.33 855.331C3429.67 847.593 3433.94 841.554 3440.14 837.216C3446.46 832.877 3454.12 830.708 3463.13 830.708C3473.55 830.708 3481.62 833.405 3487.35 838.799C3493.2 844.075 3496.13 851.286 3496.13 860.432V919.879H3484.02ZM3482.96 877.844L3455.76 881.01C3449.91 881.713 3445.46 883.355 3442.42 885.934C3439.38 888.396 3437.86 891.68 3437.86 895.783C3437.86 899.887 3439.32 903.17 3442.25 905.633C3445.29 908.095 3449.62 909.326 3455.23 909.326C3461.67 909.326 3466.93 908.036 3471.03 905.457C3475.12 902.877 3478.11 899.418 3479.98 895.08C3481.97 890.624 3482.96 885.817 3482.96 880.658V877.844Z" fill="black"/>
<path d="M3514.79 831.939H3526.9L3527.6 844.427C3530.41 840.088 3534.1 836.747 3538.66 834.402C3543.22 831.939 3548.55 830.708 3554.63 830.708C3561.3 830.708 3567.15 832.174 3572.18 835.105C3577.21 837.919 3581.13 842.199 3583.94 847.944C3586.75 853.572 3588.15 860.666 3588.15 869.226V919.879H3574.99V870.809C3574.99 861.663 3573 854.745 3569.02 850.055C3565.16 845.247 3559.54 842.844 3552.17 842.844C3544.57 842.844 3538.6 845.365 3534.27 850.407C3530.06 855.448 3527.95 862.894 3527.95 872.743V919.879H3514.79V831.939Z" fill="black"/>
<path d="M3608.6 917.592V831.939H3621.76V917.768C3621.76 925.39 3620.24 931.956 3617.2 937.467C3614.27 942.978 3610.29 947.199 3605.26 950.13C3600.35 953.179 3594.97 954.82 3589.11 955.055L3587.18 942.919C3593.97 942.333 3599.24 939.812 3602.98 935.356C3606.72 931.018 3608.6 925.097 3608.6 917.592ZM3615.27 814.351C3617.84 814.351 3620.01 813.472 3621.76 811.713C3623.52 809.954 3624.39 807.785 3624.39 805.206C3624.39 802.509 3623.52 800.281 3621.76 798.522C3620.01 796.763 3617.84 795.884 3615.27 795.884C3612.69 795.884 3610.47 796.763 3608.6 798.522C3606.84 800.281 3605.96 802.509 3605.96 805.206C3605.96 807.785 3606.84 809.954 3608.6 811.713C3610.47 813.472 3612.69 814.351 3615.27 814.351Z" fill="black"/>
<path d="M3715.48 919.879H3703.55L3702.67 907.216C3699.98 911.671 3696.35 915.13 3691.79 917.592C3687.22 919.937 3681.9 921.11 3675.81 921.11C3669.03 921.11 3663.12 919.703 3658.09 916.889C3653.06 914.075 3649.14 909.854 3646.33 904.226C3643.64 898.597 3642.29 891.504 3642.29 882.944V831.939H3655.28V881.537C3655.28 890.566 3657.21 897.425 3661.07 902.115C3665.05 906.688 3670.73 908.974 3678.1 908.974C3685.59 908.974 3691.49 906.571 3695.82 901.763C3700.27 896.839 3702.49 889.452 3702.49 879.603V831.939H3715.48V919.879Z" fill="black"/>
<path d="M3735.23 793.246H3748.57V870.105H3756.64L3791.22 831.939H3809.82L3768.4 875.909L3810 919.879H3791.22L3756.64 881.537H3748.57V919.879H3735.23V793.246Z" fill="black"/>
</svg>
