<svg width="4165" height="1063" viewBox="0 0 4165 1063" fill="none" xmlns="http://www.w3.org/2000/svg">
<path fill-rule="evenodd" clip-rule="evenodd" d="M260.122 1043.13C260.122 1043.13 138.292 1006.46 59.4945 878.863C-7.07603 771.066 -37.2891 590.567 77.9773 438.537C305.735 138.137 320.081 0 320.081 0C320.081 0 742.166 351.187 511.169 662.724C356.612 871.171 459.856 1062.21 459.856 1062.21C459.856 1062.21 212.723 826.691 317.956 647.222C420.03 473.139 342.439 369.075 342.439 369.075C342.439 369.075 211.96 490.41 164.429 647.222C116.898 804.034 260.122 1043.13 260.122 1043.13Z" fill="#265780"/>
<path d="M762.46 835.072C856.078 591.378 704.258 422.461 704.258 422.461C704.258 422.461 701.976 606.579 549.158 741.527C461.764 818.701 435.024 912.152 502.031 968.239C586.74 1039.14 721.304 942.203 762.46 835.072Z" fill="#FFB805"/>
<path d="M1102.95 122.496H1179.57V354.89H1207.15L1417.09 122.496H1513.63L1275.34 387.104L1516.69 659.381H1416.32L1206.39 419.317H1179.57V659.381H1102.95V122.496Z" fill="white"/>
<path d="M1550.3 275.892H1616.19L1620.78 327.279C1631.51 313.985 1643.77 302.992 1657.56 294.299C1671.86 285.095 1687.19 278.704 1703.53 275.125C1720.39 271.545 1737.76 271.801 1755.63 275.892V344.153C1738.78 340.062 1722.43 339.551 1706.6 342.619C1690.76 345.687 1676.46 352.334 1663.69 362.56C1651.43 372.275 1641.47 385.314 1633.81 401.676C1626.15 418.038 1622.32 437.724 1622.32 460.734V659.381H1550.3V275.892Z" fill="white"/>
<path d="M1964.25 664.75C1927.47 664.75 1894.78 656.313 1866.18 639.44C1838.09 622.055 1815.87 598.278 1799.52 568.111C1783.69 537.943 1775.77 503.429 1775.77 464.568C1775.77 427.242 1783.69 394.006 1799.52 364.861C1815.36 335.716 1837.06 312.707 1864.65 295.833C1892.74 278.96 1924.41 270.523 1959.65 270.523C1995.41 270.523 2027.08 278.448 2054.66 294.299C2082.24 309.639 2103.7 331.37 2119.02 359.492C2134.34 387.104 2141.75 419.061 2141.24 455.365C2141.24 461.501 2140.98 467.892 2140.47 474.539C2139.96 480.675 2139.19 487.578 2138.17 495.248H1854.69C1856.22 515.7 1861.84 533.852 1871.54 549.703C1881.76 565.043 1894.53 577.059 1909.85 585.751C1925.69 594.444 1943.56 598.79 1963.48 598.79C1989.02 598.79 2011.24 593.932 2030.14 584.217C2049.04 573.991 2062.32 560.441 2069.98 543.567L2132.81 565.81C2117.49 597 2095.01 621.288 2065.39 638.673C2036.27 656.058 2002.56 664.75 1964.25 664.75ZM2062.32 433.122C2062.32 414.715 2057.72 398.097 2048.53 383.269C2039.34 368.44 2026.82 356.936 2010.99 348.755C1995.66 340.062 1978.3 335.716 1958.89 335.716C1941.52 335.716 1925.43 340.062 1910.62 348.755C1896.32 356.936 1884.06 368.44 1873.84 383.269C1864.14 397.586 1858.01 414.203 1855.45 433.122H2062.32Z" fill="white"/>
<path d="M2432.75 659.381L2426.62 603.392C2414.88 622.822 2399.55 637.906 2380.65 648.643C2362.26 658.87 2338.26 663.983 2308.63 663.983C2281.05 663.983 2257.55 659.637 2238.14 650.944C2218.73 641.741 2203.66 629.213 2192.94 613.362C2182.72 597 2177.61 578.081 2177.61 556.606C2177.61 524.393 2189.62 497.804 2213.62 476.84C2237.63 455.365 2272.37 442.07 2317.83 436.957L2426.62 424.686V394.773C2426.62 378.411 2419.98 364.605 2406.7 353.356C2393.42 341.596 2374.27 335.716 2349.24 335.716C2325.74 335.716 2305.82 341.34 2289.48 352.59C2273.13 363.327 2262.15 379.434 2256.53 400.909L2192.17 377.9C2201.88 344.153 2220.78 317.82 2248.87 298.901C2277.47 279.982 2311.95 270.523 2352.3 270.523C2400.32 270.523 2436.84 282.539 2461.87 306.571C2486.9 330.603 2499.41 362.305 2499.41 401.676V659.381H2432.75ZM2426.62 483.743L2321.66 496.782C2299.18 499.849 2282.33 506.241 2271.09 515.956C2259.85 525.16 2254.23 537.431 2254.23 552.771C2254.23 567.088 2259.6 579.104 2270.32 588.819C2281.56 598.023 2297.14 602.625 2317.06 602.625C2341.58 602.625 2362.01 598.023 2378.35 588.819C2394.7 579.615 2406.7 566.832 2414.36 550.47C2422.54 533.597 2426.62 514.166 2426.62 492.18V483.743Z" fill="white"/>
<path d="M2615.37 538.198C2618.94 553.538 2625.07 565.554 2633.76 574.246C2642.44 582.939 2652.65 589.33 2664.4 593.421C2676.66 597 2689.43 598.79 2702.71 598.79C2725.7 598.79 2743.58 594.188 2756.34 584.984C2769.11 575.78 2775.5 564.276 2775.5 550.47C2775.5 538.71 2771.41 529.506 2763.24 522.859C2755.58 515.7 2745.11 510.076 2731.83 505.985C2719.06 501.895 2705.27 498.06 2690.45 494.481C2677.17 490.901 2662.62 486.811 2646.78 482.209C2631.46 477.607 2616.9 471.471 2603.11 463.801C2589.83 455.62 2578.85 445.394 2570.16 433.122C2561.48 420.339 2557.14 404.233 2557.14 384.803C2557.14 361.793 2563.27 341.852 2575.53 324.978C2588.3 307.593 2605.66 294.299 2627.63 285.095C2650.1 275.38 2675.38 270.523 2703.48 270.523C2736.17 270.523 2764.77 277.681 2789.29 291.998C2814.32 305.804 2832.45 326.768 2843.69 354.89L2778.56 376.366C2774.99 366.651 2769.11 358.725 2760.94 352.59C2752.77 346.454 2743.32 342.363 2732.59 340.318C2722.38 337.761 2712.16 336.483 2701.95 336.483C2682.54 336.483 2666.45 340.318 2653.68 347.988C2640.91 355.657 2634.52 366.906 2634.52 381.735C2634.52 389.916 2636.57 396.819 2640.65 402.443C2644.74 407.556 2650.36 411.903 2657.51 415.482C2665.17 418.55 2674.11 421.362 2684.32 423.919C2694.54 426.475 2705.52 429.287 2717.27 432.355C2732.59 436.957 2748.17 442.07 2764.01 447.695C2779.84 452.808 2794.4 459.455 2807.68 467.636C2820.96 475.817 2831.69 486.555 2839.86 499.849C2848.03 513.144 2852.37 529.506 2852.88 548.936C2852.88 571.434 2846.5 591.376 2833.73 608.76C2821.47 626.145 2803.85 639.951 2780.86 650.177C2758.39 659.892 2731.57 664.75 2700.41 664.75C2662.62 664.75 2630.44 656.313 2603.87 639.44C2577.31 622.566 2559.44 596.489 2550.24 561.208L2615.37 538.198Z" fill="white"/>
<path d="M2921.43 275.892H2994.22V659.381H2921.43V275.892ZM2958.21 208.397C2944.42 208.397 2932.93 203.796 2923.73 194.592C2914.54 185.388 2909.94 174.139 2909.94 160.845C2909.94 147.039 2914.54 135.534 2923.73 126.331C2932.93 116.616 2944.42 111.758 2958.21 111.758C2971.49 111.758 2982.73 116.616 2991.92 126.331C3001.63 135.534 3006.48 147.039 3006.48 160.845C3006.48 174.139 3001.63 185.388 2991.92 194.592C2982.73 203.796 2971.49 208.397 2958.21 208.397Z" fill="white"/>
<path d="M3084.31 107.156H3157.09V436.19H3188.51L3331.78 275.892H3429.85L3252.1 467.636L3430.62 659.381H3331.78L3188.51 498.316H3157.09V659.381H3084.31V107.156Z" fill="white"/>
<path d="M3699.62 659.381L3693.49 603.392C3681.74 622.822 3666.42 637.906 3647.52 648.643C3629.13 658.87 3605.12 663.983 3575.5 663.983C3547.91 663.983 3524.42 659.637 3505.01 650.944C3485.6 641.741 3470.53 629.213 3459.8 613.362C3449.59 597 3444.48 578.081 3444.48 556.606C3444.48 524.393 3456.48 497.804 3480.49 476.84C3504.5 455.365 3539.23 442.07 3584.69 436.957L3693.49 424.686V394.773C3693.49 378.411 3686.85 364.605 3673.57 353.356C3660.29 341.596 3641.13 335.716 3616.1 335.716C3592.61 335.716 3572.69 341.34 3556.34 352.59C3540 363.327 3529.01 379.434 3523.4 400.909L3459.04 377.9C3468.74 344.153 3487.64 317.82 3515.73 298.901C3544.34 279.982 3578.82 270.523 3619.17 270.523C3667.18 270.523 3703.7 282.539 3728.73 306.571C3753.76 330.603 3766.27 362.305 3766.27 401.676V659.381H3699.62ZM3693.49 483.743L3588.52 496.782C3566.05 499.849 3549.19 506.241 3537.95 515.956C3526.72 525.16 3521.1 537.431 3521.1 552.771C3521.1 567.088 3526.46 579.104 3537.19 588.819C3548.42 598.023 3564 602.625 3583.92 602.625C3608.44 602.625 3628.87 598.023 3645.22 588.819C3661.56 579.615 3673.57 566.832 3681.23 550.47C3689.4 533.597 3693.49 514.166 3693.49 492.18V483.743Z" fill="white"/>
<path d="M3839.33 275.892H3905.22L3909.81 320.376C3922.07 304.525 3937.65 292.254 3956.55 283.561C3975.45 274.869 3996.39 270.523 4019.38 270.523C4049 270.523 4074.54 276.914 4096 289.697C4117.96 301.969 4134.82 320.376 4146.56 344.92C4158.82 369.463 4164.95 400.142 4164.95 436.957V659.381H4092.93V446.161C4092.93 410.369 4085.27 383.269 4069.95 364.861C4055.13 345.942 4033.43 336.483 4004.82 336.483C3975.2 336.483 3952.21 346.198 3935.86 365.628C3919.52 384.547 3911.35 412.67 3911.35 449.996V939.156H3839.33V275.892Z" fill="white"/>
<path d="M1184.04 809.075H1117.52V851.11H1167.54V863.422H1117.52V907.567H1184.04V919.879H1103.48V796.763H1184.04V809.075Z" fill="white"/>
<path d="M1199.72 865.005H1268.88V876.964H1199.72V865.005Z" fill="white"/>
<path d="M1354.26 849.703L1352.86 849.879V793.246H1366.02V919.879H1353.91L1353.03 903.522C1350.34 908.447 1346.31 912.609 1340.92 916.01C1335.66 919.41 1329.1 921.11 1321.27 921.11C1313.19 921.11 1306.11 919.293 1300.03 915.658C1294.06 911.906 1289.38 906.629 1285.99 899.829C1282.71 893.028 1281.07 885.055 1281.07 875.909C1281.07 866.763 1282.71 858.849 1285.99 852.165C1289.38 845.365 1294.06 840.088 1300.03 836.336C1306.11 832.584 1313.19 830.708 1321.27 830.708C1329.57 830.708 1336.48 832.526 1341.98 836.16C1347.48 839.795 1351.57 844.309 1354.26 849.703ZM1295.29 875.909C1295.29 885.993 1297.86 894.025 1303.01 900.005C1308.16 905.867 1315.18 908.798 1324.07 908.798C1329.57 908.798 1334.49 907.509 1338.82 904.929C1343.15 902.35 1346.54 898.597 1349 893.673C1351.57 888.748 1352.86 882.827 1352.86 875.909C1352.86 868.991 1351.57 863.129 1349 858.321C1346.54 853.397 1343.15 849.644 1338.82 847.065C1334.49 844.368 1329.57 843.02 1324.07 843.02C1315.3 843.02 1308.28 846.01 1303.01 851.99C1297.86 857.852 1295.29 865.825 1295.29 875.909Z" fill="white"/>
<path d="M1388.57 831.939H1401.55V919.879H1388.57V831.939ZM1395.23 814.351C1392.54 814.351 1390.32 813.472 1388.57 811.713C1386.81 809.954 1385.93 807.785 1385.93 805.206C1385.93 802.509 1386.81 800.281 1388.57 798.522C1390.32 796.763 1392.54 795.884 1395.23 795.884C1397.69 795.884 1399.8 796.763 1401.55 798.522C1403.43 800.281 1404.36 802.509 1404.36 805.206C1404.36 807.785 1403.43 809.954 1401.55 811.713C1399.8 813.472 1397.69 814.351 1395.23 814.351Z" fill="white"/>
<path d="M1424.16 831.939H1436.27L1436.97 844.778C1439.31 841.613 1442.12 838.916 1445.4 836.688C1448.79 834.46 1452.48 832.936 1456.46 832.115C1460.55 831.177 1464.88 831.119 1469.44 831.939V845.13C1464.53 844.192 1460.08 844.192 1456.11 845.13C1452.24 846.068 1448.91 847.827 1446.1 850.407C1443.29 852.986 1441.13 856.269 1439.61 860.256C1438.09 864.125 1437.33 868.639 1437.33 873.799V919.879H1424.16V831.939Z" fill="white"/>
<path d="M1517.25 921.11C1509.06 921.11 1501.74 919.117 1495.31 915.13C1488.99 911.144 1484.02 905.691 1480.39 898.773C1476.76 891.855 1474.95 883.941 1474.95 875.03C1474.95 866.47 1476.76 858.849 1480.39 852.165C1484.02 845.482 1488.99 840.264 1495.31 836.512C1501.63 832.643 1508.82 830.708 1516.9 830.708C1524.85 830.708 1531.93 832.467 1538.13 835.984C1544.45 839.502 1549.37 844.368 1552.88 850.582C1556.39 856.797 1558.02 863.891 1557.79 871.864C1557.79 873.154 1557.73 874.502 1557.61 875.909C1557.5 877.316 1557.38 878.84 1557.26 880.482H1489.34C1489.57 885.993 1490.92 890.859 1493.38 895.08C1495.83 899.301 1499.05 902.643 1503.03 905.105C1507.12 907.45 1511.75 908.623 1516.9 908.623C1523.68 908.623 1529.42 907.333 1534.1 904.753C1538.89 902.174 1542.34 898.48 1544.45 893.673L1555.86 898.246C1552.35 905.633 1547.26 911.319 1540.59 915.306C1533.92 919.175 1526.14 921.11 1517.25 921.11ZM1543.4 869.05C1543.51 864.008 1542.4 859.552 1540.06 855.683C1537.84 851.814 1534.68 848.765 1530.59 846.537C1526.49 844.309 1521.75 843.196 1516.37 843.196C1511.69 843.196 1507.42 844.309 1503.56 846.537C1499.69 848.765 1496.48 851.872 1493.9 855.859C1491.45 859.728 1489.98 864.125 1489.52 869.05H1543.4Z" fill="white"/>
<path d="M1609.82 921.11C1601.28 921.11 1593.79 919.234 1587.36 915.482C1580.92 911.73 1575.89 906.512 1572.26 899.829C1568.75 893.028 1567 885.172 1567 876.261C1567 867.232 1568.75 859.318 1572.26 852.517C1575.89 845.599 1580.92 840.264 1587.36 836.512C1593.79 832.643 1601.28 830.708 1609.82 830.708C1618.83 830.708 1626.73 832.819 1633.52 837.04C1640.3 841.144 1645.22 846.889 1648.26 854.276L1636.15 858.497C1634.39 853.807 1631.18 850.113 1626.5 847.417C1621.93 844.603 1616.61 843.196 1610.52 843.196C1604.56 843.196 1599.35 844.544 1594.9 847.241C1590.57 849.938 1587.18 853.748 1584.72 858.673C1582.38 863.598 1581.21 869.402 1581.21 876.085C1581.21 885.934 1583.85 893.849 1589.11 899.829C1594.38 905.691 1601.4 908.623 1610.17 908.623C1616.14 908.623 1621.46 907.274 1626.14 904.577C1630.83 901.881 1634.28 898.246 1636.5 893.673L1648.44 897.894C1645.28 905.164 1640.3 910.85 1633.52 914.954C1626.73 919.058 1618.83 921.11 1609.82 921.11Z" fill="white"/>
<path d="M1668.56 831.939V807.316H1681.72V831.939H1705.07V844.251H1681.72V891.562C1681.72 896.956 1682.84 900.884 1685.06 903.346C1687.4 905.809 1690.32 907.274 1693.83 907.743C1697.46 908.212 1701.21 908.212 1705.07 907.743V919.175C1700.5 920.231 1696 920.524 1691.55 920.055C1687.22 919.586 1683.3 918.296 1679.79 916.185C1676.4 913.958 1673.65 910.85 1671.54 906.864C1669.55 902.877 1668.56 897.777 1668.56 891.562V844.251H1655.4V831.939H1668.56Z" fill="white"/>
<path d="M1755.54 921.11C1747.23 921.11 1739.8 919.293 1733.25 915.658C1726.7 912.023 1721.55 906.864 1717.8 900.18C1714.06 893.38 1712.19 885.348 1712.19 876.085C1712.19 866.705 1714.06 858.614 1717.8 851.814C1721.66 845.013 1726.87 839.795 1733.42 836.16C1740.09 832.526 1747.58 830.708 1755.89 830.708C1764.2 830.708 1771.63 832.526 1778.18 836.16C1784.85 839.795 1790.06 845.013 1793.8 851.814C1797.66 858.497 1799.59 866.47 1799.59 875.733C1799.59 885.113 1797.66 893.204 1793.8 900.005C1789.94 906.805 1784.67 912.023 1778 915.658C1771.33 919.293 1763.85 921.11 1755.54 921.11ZM1755.36 908.623C1760.51 908.623 1765.37 907.509 1769.93 905.281C1774.49 902.936 1778.18 899.36 1780.99 894.552C1783.91 889.628 1785.38 883.413 1785.38 875.909C1785.38 868.288 1783.97 862.073 1781.16 857.266C1778.36 852.459 1774.67 848.941 1770.11 846.713C1765.66 844.368 1760.86 843.196 1755.71 843.196C1750.57 843.196 1745.77 844.368 1741.32 846.713C1736.88 848.941 1733.25 852.517 1730.44 857.442C1727.75 862.249 1726.4 868.405 1726.4 875.909C1726.4 883.531 1727.75 889.745 1730.44 894.552C1733.13 899.36 1736.64 902.936 1740.97 905.281C1745.42 907.509 1750.21 908.623 1755.36 908.623Z" fill="white"/>
<path d="M1814.13 831.939H1826.24L1826.95 844.778C1829.29 841.613 1832.09 838.916 1835.37 836.688C1838.76 834.46 1842.45 832.936 1846.43 832.115C1850.52 831.177 1854.85 831.119 1859.42 831.939V845.13C1854.5 844.192 1850.05 844.192 1846.08 845.13C1842.22 846.068 1838.88 847.827 1836.07 850.407C1833.26 852.986 1831.1 856.269 1829.58 860.256C1828.06 864.125 1827.3 868.639 1827.3 873.799V919.879H1814.13V831.939Z" fill="white"/>
<path d="M1929.86 831.939H1943.55L1893.35 955.055H1880.71L1895.63 918.648L1860.18 831.939H1874.57L1902.65 902.994L1929.86 831.939Z" fill="white"/>
<path d="M2077.46 809.075H2010.94V851.11H2060.96V863.422H2010.94V907.567H2077.46V919.879H1996.9V796.763H2077.46V809.075Z" fill="white"/>
<path d="M2095.43 793.246H2108.77V870.105H2116.84L2151.42 831.939H2170.02L2128.6 875.909L2170.2 919.879H2151.42L2116.84 881.537H2108.77V919.879H2095.43V793.246Z" fill="white"/>
<path d="M2217.16 921.11C2208.85 921.11 2201.42 919.293 2194.87 915.658C2188.32 912.023 2183.17 906.864 2179.43 900.18C2175.68 893.38 2173.81 885.348 2173.81 876.085C2173.81 866.705 2175.68 858.614 2179.43 851.814C2183.29 845.013 2188.49 839.795 2195.05 836.16C2201.72 832.526 2209.21 830.708 2217.51 830.708C2225.82 830.708 2233.25 832.526 2239.8 836.16C2246.47 839.795 2251.68 845.013 2255.42 851.814C2259.29 858.497 2261.22 866.47 2261.22 875.733C2261.22 885.113 2259.29 893.204 2255.42 900.005C2251.56 906.805 2246.3 912.023 2239.63 915.658C2232.96 919.293 2225.47 921.11 2217.16 921.11ZM2216.99 908.623C2222.14 908.623 2226.99 907.509 2231.55 905.281C2236.12 902.936 2239.8 899.36 2242.61 894.552C2245.54 889.628 2247 883.413 2247 875.909C2247 868.288 2245.6 862.073 2242.79 857.266C2239.98 852.459 2236.29 848.941 2231.73 846.713C2227.28 844.368 2222.49 843.196 2217.34 843.196C2212.19 843.196 2207.39 844.368 2202.95 846.713C2198.5 848.941 2194.87 852.517 2192.06 857.442C2189.37 862.249 2188.03 868.405 2188.03 875.909C2188.03 883.531 2189.37 889.745 2192.06 894.552C2194.75 899.36 2198.27 902.936 2202.59 905.281C2207.04 907.509 2211.84 908.623 2216.99 908.623Z" fill="white"/>
<path d="M2275.76 831.939H2287.87L2288.57 844.427C2291.38 840.088 2295.06 836.747 2299.63 834.402C2304.19 831.939 2309.51 830.708 2315.6 830.708C2322.27 830.708 2328.12 832.174 2333.15 835.105C2338.18 837.919 2342.1 842.199 2344.91 847.944C2347.72 853.572 2349.12 860.666 2349.12 869.226V919.879H2335.96V870.809C2335.96 861.663 2333.97 854.745 2329.99 850.055C2326.13 845.247 2320.51 842.844 2313.14 842.844C2305.54 842.844 2299.57 845.365 2295.24 850.407C2291.03 855.448 2288.92 862.894 2288.92 872.743V919.879H2275.76V831.939Z" fill="white"/>
<path d="M2405.55 921.11C2397.24 921.11 2389.81 919.293 2383.25 915.658C2376.7 912.023 2371.55 906.864 2367.81 900.18C2364.07 893.38 2362.19 885.348 2362.19 876.085C2362.19 866.705 2364.07 858.614 2367.81 851.814C2371.67 845.013 2376.88 839.795 2383.43 836.16C2390.1 832.526 2397.59 830.708 2405.9 830.708C2414.2 830.708 2421.63 832.526 2428.19 836.16C2434.86 839.795 2440.06 845.013 2443.81 851.814C2447.67 858.497 2449.6 866.47 2449.6 875.733C2449.6 885.113 2447.67 893.204 2443.81 900.005C2439.95 906.805 2434.68 912.023 2428.01 915.658C2421.34 919.293 2413.85 921.11 2405.55 921.11ZM2405.37 908.623C2410.52 908.623 2415.37 907.509 2419.94 905.281C2424.5 902.936 2428.19 899.36 2430.99 894.552C2433.92 889.628 2435.38 883.413 2435.38 875.909C2435.38 868.288 2433.98 862.073 2431.17 857.266C2428.36 852.459 2424.68 848.941 2420.11 846.713C2415.67 844.368 2410.87 843.196 2405.72 843.196C2400.57 843.196 2395.78 844.368 2391.33 846.713C2386.88 848.941 2383.26 852.517 2380.45 857.442C2377.76 862.249 2376.41 868.405 2376.41 875.909C2376.41 883.531 2377.76 889.745 2380.45 894.552C2383.14 899.36 2386.65 902.936 2390.98 905.281C2395.42 907.509 2400.22 908.623 2405.37 908.623Z" fill="white"/>
<path d="M2464.14 831.939H2476.25L2477.13 844.603C2479.7 840.381 2483.15 837.04 2487.48 834.577C2491.93 831.998 2497.19 830.708 2503.28 830.708C2509.48 830.708 2515.1 832.232 2520.13 835.281C2525.28 838.212 2529.26 842.609 2532.06 848.472C2534.76 842.492 2538.85 838.036 2544.35 835.105C2549.85 832.174 2555.93 830.708 2562.6 830.708C2569.16 830.708 2574.95 832.174 2579.98 835.105C2585.01 837.919 2588.93 842.199 2591.74 847.944C2594.55 853.572 2595.95 860.666 2595.95 869.226V919.879H2582.79V870.809C2582.79 861.663 2580.8 854.745 2576.82 850.055C2572.96 845.247 2567.4 842.844 2560.15 842.844C2552.77 842.844 2546.92 845.423 2542.59 850.582C2538.27 855.624 2536.1 863.129 2536.1 873.095V919.879H2522.94V870.809C2522.94 861.663 2521.06 854.745 2517.32 850.055C2513.58 845.247 2508.08 842.844 2500.82 842.844C2493.45 842.844 2487.66 845.423 2483.45 850.582C2479.35 855.624 2477.3 863.129 2477.3 873.095V919.879H2464.14V831.939Z" fill="white"/>
<path d="M2617.1 831.939H2630.09V919.879H2617.1V831.939ZM2623.77 814.351C2621.08 814.351 2618.85 813.472 2617.1 811.713C2615.34 809.954 2614.47 807.785 2614.47 805.206C2614.47 802.509 2615.34 800.281 2617.1 798.522C2618.85 796.763 2621.08 795.884 2623.77 795.884C2626.22 795.884 2628.33 796.763 2630.09 798.522C2631.96 800.281 2632.89 802.509 2632.89 805.206C2632.89 807.785 2631.96 809.954 2630.09 811.713C2628.33 813.472 2626.22 814.351 2623.77 814.351Z" fill="white"/>
<path d="M2696.27 796.763H2710.31V851.11H2716.28L2767 796.763H2785.08L2728.56 857.266L2785.61 919.879H2767L2716.1 863.422H2710.31V919.879H2696.27V796.763Z" fill="white"/>
<path d="M2794.46 831.939H2806.57L2807.27 844.778C2809.61 841.613 2812.42 838.916 2815.69 836.688C2819.09 834.46 2822.77 832.936 2826.75 832.115C2830.85 831.177 2835.18 831.119 2839.74 831.939V845.13C2834.82 844.192 2830.38 844.192 2826.4 845.13C2822.54 846.068 2819.2 847.827 2816.4 850.407C2813.59 852.986 2811.42 856.269 2809.9 860.256C2808.38 864.125 2807.62 868.639 2807.62 873.799V919.879H2794.46V831.939Z" fill="white"/>
<path d="M2887.54 921.11C2879.35 921.11 2872.04 919.117 2865.6 915.13C2859.28 911.144 2854.31 905.691 2850.68 898.773C2847.06 891.855 2845.24 883.941 2845.24 875.03C2845.24 866.47 2847.06 858.849 2850.68 852.165C2854.31 845.482 2859.28 840.264 2865.6 836.512C2871.92 832.643 2879.12 830.708 2887.19 830.708C2895.15 830.708 2902.23 832.467 2908.43 835.984C2914.75 839.502 2919.66 844.368 2923.17 850.582C2926.68 856.797 2928.32 863.891 2928.08 871.864C2928.08 873.154 2928.03 874.502 2927.91 875.909C2927.79 877.316 2927.68 878.84 2927.56 880.482H2859.63C2859.87 885.993 2861.21 890.859 2863.67 895.08C2866.13 899.301 2869.35 902.643 2873.32 905.105C2877.42 907.45 2882.04 908.623 2887.19 908.623C2893.98 908.623 2899.71 907.333 2904.39 904.753C2909.19 902.174 2912.64 898.48 2914.75 893.673L2926.15 898.246C2922.64 905.633 2917.55 911.319 2910.88 915.306C2904.21 919.175 2896.43 921.11 2887.54 921.11ZM2913.69 869.05C2913.81 864.008 2912.7 859.552 2910.36 855.683C2908.13 851.814 2904.98 848.765 2900.88 846.537C2896.78 844.309 2892.05 843.196 2886.66 843.196C2881.98 843.196 2877.71 844.309 2873.85 846.537C2869.99 848.765 2866.77 851.872 2864.2 855.859C2861.74 859.728 2860.28 864.125 2859.81 869.05H2913.69Z" fill="white"/>
<path d="M2997.67 919.879L2996.61 904.05C2994.16 909.443 2990.53 913.664 2985.73 916.713C2980.94 919.644 2974.85 921.11 2967.48 921.11C2961.16 921.11 2955.78 920.113 2951.33 918.12C2946.89 916.127 2943.43 913.313 2940.98 909.678C2938.64 905.926 2937.47 901.529 2937.47 896.487C2937.47 889.1 2940.22 883.061 2945.72 878.371C2951.22 873.564 2959.17 870.633 2969.59 869.577L2996.61 866.587V859.552C2996.61 854.628 2994.8 850.7 2991.17 847.768C2987.55 844.72 2982.63 843.196 2976.43 843.196C2970.35 843.196 2965.26 844.603 2961.16 847.417C2957.18 850.231 2954.43 854.276 2952.91 859.552L2940.98 855.331C2943.32 847.593 2947.59 841.554 2953.79 837.216C2960.11 832.877 2967.77 830.708 2976.78 830.708C2987.2 830.708 2995.27 833.405 3001 838.799C3006.85 844.075 3009.78 851.286 3009.78 860.432V919.879H2997.67ZM2996.61 877.844L2969.41 881.01C2963.56 881.713 2959.11 883.355 2956.07 885.934C2953.03 888.396 2951.51 891.68 2951.51 895.783C2951.51 899.887 2952.97 903.17 2955.9 905.633C2958.94 908.095 2963.27 909.326 2968.88 909.326C2975.32 909.326 2980.58 908.036 2984.68 905.457C2988.78 902.877 2991.76 899.418 2993.63 895.08C2995.62 890.624 2996.61 885.817 2996.61 880.658V877.844Z" fill="white"/>
<path d="M3034.06 831.939V807.316H3047.22V831.939H3070.56V844.251H3047.22V891.562C3047.22 896.956 3048.33 900.884 3050.55 903.346C3052.89 905.809 3055.82 907.274 3059.33 907.743C3062.96 908.212 3066.7 908.212 3070.56 907.743V919.175C3066 920.231 3061.49 920.524 3057.05 920.055C3052.72 919.586 3048.8 918.296 3045.29 916.185C3041.9 913.958 3039.15 910.85 3037.04 906.864C3035.05 902.877 3034.06 897.777 3034.06 891.562V844.251H3020.89V831.939H3034.06Z" fill="white"/>
<path d="M3085.76 831.939H3098.74V919.879H3085.76V831.939ZM3092.43 814.351C3089.73 814.351 3087.51 813.472 3085.76 811.713C3084 809.954 3083.12 807.785 3083.12 805.206C3083.12 802.509 3084 800.281 3085.76 798.522C3087.51 796.763 3089.73 795.884 3092.43 795.884C3094.88 795.884 3096.99 796.763 3098.74 798.522C3100.62 800.281 3101.55 802.509 3101.55 805.206C3101.55 807.785 3100.62 809.954 3098.74 811.713C3096.99 813.472 3094.88 814.351 3092.43 814.351Z" fill="white"/>
<path d="M3126.09 821.562C3126.09 815.114 3127.14 809.661 3129.25 805.206C3131.36 800.75 3134.69 797.526 3139.25 795.532C3143.93 793.422 3150.14 792.66 3157.86 793.246V805.03C3150.84 804.443 3145.98 805.616 3143.29 808.547C3140.6 811.361 3139.25 815.7 3139.25 821.562V831.939H3158.56V844.251H3139.25V919.879H3126.09V844.251H3113.8V831.939H3126.09V821.562Z" fill="white"/>
<path d="M3308.71 796.763V919.879H3294.5L3228.85 819.276V919.879H3214.81V796.763H3229.03L3294.67 897.19V796.763H3308.71Z" fill="white"/>
<path d="M3397.54 831.939H3409.65V903.698C3409.65 914.485 3407.25 923.69 3402.45 931.311C3397.65 939.05 3390.69 944.912 3381.56 948.899C3372.44 953.003 3361.32 955.055 3348.22 955.055L3346.11 942.919C3362.61 942.685 3375.13 939.226 3383.67 932.542C3392.21 925.976 3396.48 916.361 3396.48 903.698V901.763L3397.89 902.115C3395.2 907.274 3391.16 911.73 3385.78 915.482C3380.39 919.117 3373.43 920.993 3364.89 921.11C3356.82 921.11 3349.74 919.293 3343.65 915.658C3337.69 911.906 3333.01 906.629 3329.61 899.829C3326.34 893.028 3324.7 885.055 3324.7 875.909C3324.7 866.763 3326.34 858.849 3329.61 852.165C3333.01 845.365 3337.69 840.088 3343.65 836.336C3349.74 832.584 3356.82 830.708 3364.89 830.708C3370.16 830.708 3374.84 831.529 3378.93 833.17C3383.03 834.695 3386.54 836.805 3389.46 839.502C3392.39 842.082 3394.79 845.013 3396.66 848.296L3397.54 831.939ZM3338.91 875.909C3338.91 885.993 3341.49 894.025 3346.64 900.005C3351.9 905.867 3358.98 908.798 3367.87 908.798C3373.26 908.798 3378.11 907.509 3382.44 904.929C3386.77 902.35 3390.16 898.597 3392.62 893.673C3395.2 888.748 3396.48 882.827 3396.48 875.909C3396.48 868.991 3395.2 863.129 3392.62 858.321C3390.16 853.397 3386.77 849.644 3382.44 847.065C3378.11 844.368 3373.26 843.02 3367.87 843.02C3359.1 843.02 3352.08 846.01 3346.81 851.99C3341.55 857.969 3338.91 865.943 3338.91 875.909Z" fill="white"/>
<path d="M3484.49 919.879L3483.44 904.05C3480.98 909.443 3477.36 913.664 3472.56 916.713C3467.76 919.644 3461.68 921.11 3454.31 921.11C3447.99 921.11 3442.6 920.113 3438.16 918.12C3433.71 916.127 3430.26 913.313 3427.8 909.678C3425.46 905.926 3424.29 901.529 3424.29 896.487C3424.29 889.1 3427.04 883.061 3432.54 878.371C3438.04 873.564 3446 870.633 3456.41 869.577L3483.44 866.587V859.552C3483.44 854.628 3481.63 850.7 3478 847.768C3474.37 844.72 3469.46 843.196 3463.26 843.196C3457.17 843.196 3452.08 844.603 3447.99 847.417C3444.01 850.231 3441.26 854.276 3439.74 859.552L3427.8 855.331C3430.14 847.593 3434.41 841.554 3440.62 837.216C3446.93 832.877 3454.6 830.708 3463.61 830.708C3474.02 830.708 3482.1 833.405 3487.83 838.799C3493.68 844.075 3496.6 851.286 3496.6 860.432V919.879H3484.49ZM3483.44 877.844L3456.24 881.01C3450.39 881.713 3445.94 883.355 3442.9 885.934C3439.85 888.396 3438.33 891.68 3438.33 895.783C3438.33 899.887 3439.8 903.17 3442.72 905.633C3445.76 908.095 3450.09 909.326 3455.71 909.326C3462.15 909.326 3467.41 908.036 3471.51 905.457C3475.6 902.877 3478.58 899.418 3480.46 895.08C3482.45 890.624 3483.44 885.817 3483.44 880.658V877.844Z" fill="white"/>
<path d="M3515.27 831.939H3527.38L3528.08 844.427C3530.89 840.088 3534.57 836.747 3539.14 834.402C3543.7 831.939 3549.02 830.708 3555.11 830.708C3561.78 830.708 3567.63 832.174 3572.66 835.105C3577.69 837.919 3581.61 842.199 3584.42 847.944C3587.23 853.572 3588.63 860.666 3588.63 869.226V919.879H3575.47V870.809C3575.47 861.663 3573.48 854.745 3569.5 850.055C3565.64 845.247 3560.02 842.844 3552.65 842.844C3545.04 842.844 3539.08 845.365 3534.75 850.407C3530.54 855.448 3528.43 862.894 3528.43 872.743V919.879H3515.27V831.939Z" fill="white"/>
<path d="M3609.07 917.592V831.939H3622.24V917.768C3622.24 925.39 3620.72 931.956 3617.67 937.467C3614.75 942.978 3610.77 947.199 3605.74 950.13C3600.82 953.179 3595.44 954.82 3589.59 955.055L3587.66 942.919C3594.45 942.333 3599.71 939.812 3603.46 935.356C3607.2 931.018 3609.07 925.097 3609.07 917.592ZM3615.74 814.351C3618.32 814.351 3620.48 813.472 3622.24 811.713C3623.99 809.954 3624.87 807.785 3624.87 805.206C3624.87 802.509 3623.99 800.281 3622.24 798.522C3620.48 796.763 3618.32 795.884 3615.74 795.884C3613.17 795.884 3610.95 796.763 3609.07 798.522C3607.32 800.281 3606.44 802.509 3606.44 805.206C3606.44 807.785 3607.32 809.954 3609.07 811.713C3610.95 813.472 3613.17 814.351 3615.74 814.351Z" fill="white"/>
<path d="M3715.96 919.879H3704.02L3703.15 907.216C3700.45 911.671 3696.83 915.13 3692.26 917.592C3687.7 919.937 3682.38 921.11 3676.29 921.11C3669.51 921.11 3663.6 919.703 3658.56 916.889C3653.53 914.075 3649.61 909.854 3646.81 904.226C3644.11 898.597 3642.77 891.504 3642.77 882.944V831.939H3655.76V881.537C3655.76 890.566 3657.69 897.425 3661.55 902.115C3665.53 906.688 3671.2 908.974 3678.57 908.974C3686.06 908.974 3691.97 906.571 3696.3 901.763C3700.75 896.839 3702.97 889.452 3702.97 879.603V831.939H3715.96V919.879Z" fill="white"/>
<path d="M3735.71 793.246H3749.05V870.105H3757.12L3791.7 831.939H3810.3L3768.88 875.909L3810.48 919.879H3791.7L3757.12 881.537H3749.05V919.879H3735.71V793.246Z" fill="white"/>
</svg>
