<svg width="4166" height="1063" viewBox="0 0 4166 1063" fill="none" xmlns="http://www.w3.org/2000/svg">
<path fill-rule="evenodd" clip-rule="evenodd" d="M260.122 1043.34C260.122 1043.34 138.292 1006.67 59.4945 879.073C-7.07603 771.277 -37.2891 590.778 77.9773 438.748C305.735 138.348 320.081 0.210938 320.081 0.210938C320.081 0.210938 742.166 351.398 511.169 662.935C356.612 871.382 459.856 1062.42 459.856 1062.42C459.856 1062.42 212.723 826.902 317.956 647.433C420.03 473.35 342.439 369.285 342.439 369.285C342.439 369.285 211.96 490.621 164.429 647.433C116.898 804.245 260.122 1043.34 260.122 1043.34Z" fill="black"/>
<path d="M762.936 835.494C856.554 591.8 704.735 422.883 704.735 422.883C704.735 422.883 702.452 607 549.634 741.949C462.241 819.122 435.5 912.574 502.507 968.661C587.216 1039.56 721.781 942.625 762.936 835.494Z" fill="black"/>
<path d="M1103.43 122.707H1180.05V355.101H1207.63L1417.56 122.707H1514.1L1275.82 387.314L1517.17 659.592H1416.8L1206.86 419.528H1180.05V659.592H1103.43V122.707Z" fill="black"/>
<path d="M1550.77 276.103H1616.66L1621.26 327.49C1631.99 314.196 1644.25 303.202 1658.04 294.51C1672.34 285.306 1687.66 278.915 1704.01 275.336C1720.86 271.756 1738.23 272.012 1756.11 276.103V344.364C1739.25 340.273 1722.91 339.762 1707.07 342.83C1691.24 345.898 1676.94 352.545 1664.17 362.771C1651.91 372.486 1641.95 385.525 1634.29 401.887C1626.62 418.249 1622.79 437.935 1622.79 460.944V659.592H1550.77V276.103Z" fill="black"/>
<path d="M1964.73 664.961C1927.95 664.961 1895.26 656.524 1866.66 639.651C1838.56 622.266 1816.34 598.489 1800 568.322C1784.16 538.154 1776.25 503.64 1776.25 464.779C1776.25 427.453 1784.16 394.217 1800 365.072C1815.83 335.927 1837.54 312.918 1865.12 296.044C1893.22 279.17 1924.89 270.734 1960.13 270.734C1995.88 270.734 2027.55 278.659 2055.14 294.51C2082.72 309.85 2104.17 331.581 2119.5 359.703C2134.82 387.314 2142.23 419.272 2141.71 455.576C2141.71 461.711 2141.46 468.103 2140.95 474.75C2140.44 480.886 2139.67 487.789 2138.65 495.459H1855.16C1856.69 515.911 1862.31 534.063 1872.02 549.914C1882.23 565.254 1895 577.27 1910.33 585.962C1926.16 594.654 1944.04 599.001 1963.96 599.001C1989.5 599.001 2011.72 594.143 2030.62 584.428C2049.52 574.202 2062.8 560.652 2070.46 543.778L2133.29 566.021C2117.96 597.211 2095.49 621.499 2065.86 638.884C2036.75 656.268 2003.04 664.961 1964.73 664.961ZM2062.8 433.333C2062.8 414.926 2058.2 398.308 2049.01 383.48C2039.81 368.651 2027.3 357.147 2011.46 348.966C1996.14 340.273 1978.77 335.927 1959.36 335.927C1942 335.927 1925.91 340.273 1911.09 348.966C1896.79 357.147 1884.53 368.651 1874.32 383.48C1864.61 397.797 1858.48 414.414 1855.93 433.333H2062.8Z" fill="black"/>
<path d="M2433.23 659.592L2427.1 603.603C2415.35 623.033 2400.03 638.117 2381.13 648.854C2362.74 659.081 2338.73 664.194 2309.11 664.194C2281.52 664.194 2258.03 659.848 2238.62 651.155C2219.21 641.952 2204.14 629.424 2193.41 613.573C2183.2 597.211 2178.09 578.292 2178.09 556.817C2178.09 524.604 2190.09 498.015 2214.1 477.051C2238.11 455.576 2272.84 442.281 2318.3 437.168L2427.1 424.896V394.984C2427.1 378.622 2420.46 364.816 2407.18 353.567C2393.9 341.807 2374.74 335.927 2349.72 335.927C2326.22 335.927 2306.3 341.551 2289.95 352.8C2273.61 363.538 2262.63 379.645 2257.01 401.12L2192.65 378.111C2202.35 344.364 2221.25 318.031 2249.35 299.112C2277.95 280.193 2312.43 270.734 2352.78 270.734C2400.79 270.734 2437.32 282.75 2462.34 306.782C2487.37 330.814 2499.89 362.516 2499.89 401.887V659.592H2433.23ZM2427.1 483.954L2322.13 496.992C2299.66 500.06 2282.8 506.452 2271.56 516.167C2260.33 525.371 2254.71 537.642 2254.71 552.982C2254.71 567.299 2260.07 579.315 2270.8 589.03C2282.04 598.234 2297.61 602.836 2317.54 602.836C2342.05 602.836 2362.48 598.234 2378.83 589.03C2395.18 579.826 2407.18 567.043 2414.84 550.681C2423.01 533.807 2427.1 514.377 2427.1 492.391V483.954Z" fill="black"/>
<path d="M2615.84 538.409C2619.42 553.749 2625.55 565.765 2634.23 574.457C2642.92 583.15 2653.13 589.541 2664.88 593.632C2677.14 597.211 2689.91 599.001 2703.19 599.001C2726.17 599.001 2744.05 594.399 2756.82 585.195C2769.59 575.991 2775.98 564.487 2775.98 550.681C2775.98 538.921 2771.89 529.717 2763.72 523.07C2756.06 515.911 2745.58 510.287 2732.3 506.196C2719.53 502.106 2705.74 498.271 2690.93 494.692C2677.65 491.112 2663.09 487.022 2647.26 482.42C2631.93 477.818 2617.38 471.682 2603.58 464.012C2590.3 455.831 2579.32 445.605 2570.64 433.333C2561.96 420.55 2557.61 404.444 2557.61 385.014C2557.61 362.004 2563.74 342.063 2576 325.189C2588.77 307.804 2606.14 294.51 2628.1 285.306C2650.58 275.591 2675.86 270.734 2703.95 270.734C2736.65 270.734 2765.25 277.892 2789.77 292.209C2814.8 306.015 2832.93 326.979 2844.17 355.101L2779.04 376.577C2775.47 366.862 2769.59 358.936 2761.42 352.8C2753.25 346.665 2743.8 342.574 2733.07 340.529C2722.85 337.972 2712.64 336.694 2702.42 336.694C2683.01 336.694 2666.92 340.529 2654.15 348.199C2641.38 355.868 2635 367.117 2635 381.946C2635 390.127 2637.04 397.03 2641.13 402.654C2645.21 407.767 2650.83 412.113 2657.98 415.693C2665.65 418.761 2674.58 421.573 2684.8 424.13C2695.02 426.686 2706 429.498 2717.75 432.566C2733.07 437.168 2748.65 442.281 2764.48 447.906C2780.32 453.019 2794.88 459.666 2808.16 467.847C2821.44 476.028 2832.16 486.766 2840.34 500.06C2848.51 513.355 2852.85 529.717 2853.36 549.147C2853.36 571.645 2846.98 591.587 2834.21 608.971C2821.95 626.356 2804.32 640.162 2781.34 650.388C2758.86 660.103 2732.05 664.961 2700.89 664.961C2663.09 664.961 2630.91 656.524 2604.35 639.651C2577.79 622.777 2559.91 596.7 2550.72 561.419L2615.84 538.409Z" fill="black"/>
<path d="M2921.91 276.103H2994.7V659.592H2921.91V276.103ZM2958.69 208.608C2944.9 208.608 2933.4 204.007 2924.21 194.803C2915.01 185.599 2910.42 174.35 2910.42 161.056C2910.42 147.25 2915.01 135.745 2924.21 126.542C2933.4 116.827 2944.9 111.969 2958.69 111.969C2971.97 111.969 2983.2 116.827 2992.4 126.542C3002.1 135.745 3006.96 147.25 3006.96 161.056C3006.96 174.35 3002.1 185.599 2992.4 194.803C2983.2 204.007 2971.97 208.608 2958.69 208.608Z" fill="black"/>
<path d="M3084.78 107.367H3157.57V436.401H3188.98L3332.26 276.103H3430.33L3252.58 467.847L3431.1 659.592H3332.26L3188.98 498.526H3157.57V659.592H3084.78V107.367Z" fill="black"/>
<path d="M3700.09 659.592L3693.96 603.603C3682.22 623.033 3666.89 638.117 3647.99 648.854C3629.6 659.081 3605.6 664.194 3575.97 664.194C3548.39 664.194 3524.89 659.848 3505.48 651.155C3486.07 641.952 3471.01 629.424 3460.28 613.573C3450.06 597.211 3444.95 578.292 3444.95 556.817C3444.95 524.604 3456.96 498.015 3480.97 477.051C3504.97 455.576 3539.71 442.281 3585.17 437.168L3693.96 424.896V394.984C3693.96 378.622 3687.32 364.816 3674.04 353.567C3660.76 341.807 3641.61 335.927 3616.58 335.927C3593.08 335.927 3573.16 341.551 3556.82 352.8C3540.47 363.538 3529.49 379.645 3523.87 401.12L3459.51 378.111C3469.22 344.364 3488.12 318.031 3516.21 299.112C3544.81 280.193 3579.29 270.734 3619.64 270.734C3667.66 270.734 3704.18 282.75 3729.21 306.782C3754.24 330.814 3766.75 362.516 3766.75 401.887V659.592H3700.09ZM3693.96 483.954L3589 496.992C3566.52 500.06 3549.67 506.452 3538.43 516.167C3527.19 525.371 3521.57 537.642 3521.57 552.982C3521.57 567.299 3526.94 579.315 3537.66 589.03C3548.9 598.234 3564.48 602.836 3584.4 602.836C3608.92 602.836 3629.35 598.234 3645.69 589.03C3662.04 579.826 3674.04 567.043 3681.71 550.681C3689.88 533.807 3693.96 514.377 3693.96 492.391V483.954Z" fill="black"/>
<path d="M3839.8 276.103H3905.69L3910.29 320.587C3922.55 304.736 3938.13 292.465 3957.03 283.772C3975.93 275.08 3996.87 270.734 4019.86 270.734C4049.48 270.734 4075.02 277.125 4096.47 289.908C4118.44 302.18 4135.29 320.587 4147.04 345.131C4159.3 369.674 4165.43 400.353 4165.43 437.168V659.592H4093.41V446.372C4093.41 410.58 4085.75 383.48 4070.42 365.072C4055.61 346.153 4033.9 336.694 4005.3 336.694C3975.67 336.694 3952.69 346.409 3936.34 365.839C3920 384.758 3911.82 412.88 3911.82 450.207V939.367H3839.8V276.103Z" fill="black"/>
<path d="M1184.51 809.286H1117.99V851.321H1168.02V863.633H1117.99V907.778H1184.51V920.09H1103.95V796.974H1184.51V809.286Z" fill="black"/>
<path d="M1200.2 865.215H1269.35V877.175H1200.2V865.215Z" fill="black"/>
<path d="M1354.74 849.914L1353.33 850.09V793.457H1366.5V920.09H1354.39L1353.51 903.733C1350.82 908.658 1346.78 912.82 1341.4 916.22C1336.13 919.621 1329.58 921.321 1321.74 921.321C1313.67 921.321 1306.59 919.504 1300.5 915.869C1294.54 912.117 1289.86 906.84 1286.46 900.04C1283.19 893.239 1281.55 885.266 1281.55 876.12C1281.55 866.974 1283.19 859.06 1286.46 852.376C1289.86 845.576 1294.54 840.299 1300.5 836.547C1306.59 832.795 1313.67 830.919 1321.74 830.919C1330.05 830.919 1336.95 832.736 1342.45 836.371C1347.95 840.006 1352.05 844.52 1354.74 849.914ZM1295.77 876.12C1295.77 886.204 1298.34 894.236 1303.49 900.215C1308.64 906.078 1315.66 909.009 1324.55 909.009C1330.05 909.009 1334.96 907.72 1339.29 905.14C1343.62 902.561 1347.02 898.808 1349.47 893.884C1352.05 888.959 1353.33 883.038 1353.33 876.12C1353.33 869.202 1352.05 863.339 1349.47 858.532C1347.02 853.607 1343.62 849.855 1339.29 847.276C1334.96 844.579 1330.05 843.231 1324.55 843.231C1315.77 843.231 1308.75 846.221 1303.49 852.2C1298.34 858.063 1295.77 866.036 1295.77 876.12Z" fill="black"/>
<path d="M1389.04 832.15H1402.03V920.09H1389.04V832.15ZM1395.71 814.562C1393.02 814.562 1390.8 813.683 1389.04 811.924C1387.29 810.165 1386.41 807.996 1386.41 805.417C1386.41 802.72 1387.29 800.492 1389.04 798.733C1390.8 796.974 1393.02 796.095 1395.71 796.095C1398.17 796.095 1400.27 796.974 1402.03 798.733C1403.9 800.492 1404.84 802.72 1404.84 805.417C1404.84 807.996 1403.9 810.165 1402.03 811.924C1400.27 813.683 1398.17 814.562 1395.71 814.562Z" fill="black"/>
<path d="M1424.64 832.15H1436.75L1437.45 844.989C1439.79 841.824 1442.6 839.127 1445.88 836.899C1449.27 834.671 1452.95 833.147 1456.93 832.326C1461.03 831.388 1465.36 831.329 1469.92 832.15V845.341C1465.01 844.403 1460.56 844.403 1456.58 845.341C1452.72 846.279 1449.39 848.038 1446.58 850.618C1443.77 853.197 1441.6 856.48 1440.08 860.467C1438.56 864.336 1437.8 868.85 1437.8 874.009V920.09H1424.64V832.15Z" fill="black"/>
<path d="M1517.72 921.321C1509.53 921.321 1502.22 919.328 1495.78 915.341C1489.47 911.354 1484.49 905.902 1480.86 898.984C1477.24 892.066 1475.42 884.152 1475.42 875.241C1475.42 866.681 1477.24 859.06 1480.86 852.376C1484.49 845.693 1489.47 840.475 1495.78 836.723C1502.1 832.854 1509.3 830.919 1517.37 830.919C1525.33 830.919 1532.41 832.678 1538.61 836.195C1544.93 839.713 1549.84 844.579 1553.35 850.793C1556.86 857.008 1558.5 864.102 1558.27 872.075C1558.27 873.365 1558.21 874.713 1558.09 876.12C1557.97 877.527 1557.86 879.051 1557.74 880.693H1489.82C1490.05 886.204 1491.4 891.07 1493.85 895.291C1496.31 899.512 1499.53 902.854 1503.51 905.316C1507.6 907.661 1512.22 908.834 1517.37 908.834C1524.16 908.834 1529.89 907.544 1534.57 904.964C1539.37 902.385 1542.82 898.691 1544.93 893.884L1556.34 898.457C1552.83 905.844 1547.74 911.53 1541.07 915.517C1534.4 919.386 1526.62 921.321 1517.72 921.321ZM1543.87 869.261C1543.99 864.219 1542.88 859.763 1540.54 855.894C1538.32 852.025 1535.16 848.976 1531.06 846.748C1526.97 844.52 1522.23 843.406 1516.85 843.406C1512.16 843.406 1507.89 844.52 1504.03 846.748C1500.17 848.976 1496.95 852.083 1494.38 856.07C1491.92 859.939 1490.46 864.336 1489.99 869.261H1543.87Z" fill="black"/>
<path d="M1610.3 921.321C1601.76 921.321 1594.27 919.445 1587.83 915.693C1581.4 911.941 1576.37 906.723 1572.74 900.04C1569.23 893.239 1567.47 885.383 1567.47 876.472C1567.47 867.443 1569.23 859.529 1572.74 852.728C1576.37 845.81 1581.4 840.475 1587.83 836.723C1594.27 832.854 1601.76 830.919 1610.3 830.919C1619.31 830.919 1627.21 833.03 1633.99 837.251C1640.78 841.355 1645.69 847.1 1648.74 854.487L1636.63 858.708C1634.87 854.018 1631.65 850.324 1626.97 847.628C1622.41 844.814 1617.09 843.406 1611 843.406C1605.03 843.406 1599.83 844.755 1595.38 847.452C1591.05 850.149 1587.66 853.959 1585.2 858.884C1582.86 863.808 1581.69 869.612 1581.69 876.296C1581.69 886.145 1584.32 894.06 1589.59 900.04C1594.85 905.902 1601.87 908.834 1610.65 908.834C1616.62 908.834 1621.94 907.485 1626.62 904.788C1631.3 902.091 1634.75 898.457 1636.98 893.884L1648.91 898.105C1645.75 905.375 1640.78 911.061 1633.99 915.165C1627.21 919.269 1619.31 921.321 1610.3 921.321Z" fill="black"/>
<path d="M1669.04 832.15V807.527H1682.2V832.15H1705.54V844.462H1682.2V891.773C1682.2 897.167 1683.31 901.095 1685.54 903.557C1687.88 906.019 1690.8 907.485 1694.31 907.954C1697.94 908.423 1701.68 908.423 1705.54 907.954V919.386C1700.98 920.442 1696.48 920.735 1692.03 920.266C1687.7 919.797 1683.78 918.507 1680.27 916.396C1676.88 914.169 1674.13 911.061 1672.02 907.075C1670.03 903.088 1669.04 897.988 1669.04 891.773V844.462H1655.87V832.15H1669.04Z" fill="black"/>
<path d="M1756.02 921.321C1747.71 921.321 1740.28 919.504 1733.72 915.869C1727.17 912.234 1722.02 907.075 1718.28 900.391C1714.54 893.591 1712.66 885.559 1712.66 876.296C1712.66 866.916 1714.54 858.825 1718.28 852.025C1722.14 845.224 1727.35 840.006 1733.9 836.371C1740.57 832.736 1748.06 830.919 1756.37 830.919C1764.67 830.919 1772.1 832.736 1778.66 836.371C1785.33 840.006 1790.53 845.224 1794.28 852.025C1798.14 858.708 1800.07 866.681 1800.07 875.944C1800.07 885.324 1798.14 893.415 1794.28 900.215C1790.42 907.016 1785.15 912.234 1778.48 915.869C1771.81 919.504 1764.32 921.321 1756.02 921.321ZM1755.84 908.834C1760.99 908.834 1765.84 907.72 1770.41 905.492C1774.97 903.147 1778.66 899.571 1781.46 894.763C1784.39 889.839 1785.85 883.624 1785.85 876.12C1785.85 868.499 1784.45 862.284 1781.64 857.477C1778.83 852.669 1775.15 849.152 1770.58 846.924C1766.14 844.579 1761.34 843.406 1756.19 843.406C1751.04 843.406 1746.24 844.579 1741.8 846.924C1737.35 849.152 1733.72 852.728 1730.92 857.653C1728.23 862.46 1726.88 868.616 1726.88 876.12C1726.88 883.741 1728.23 889.956 1730.92 894.763C1733.61 899.571 1737.12 903.147 1741.45 905.492C1745.89 907.72 1750.69 908.834 1755.84 908.834Z" fill="black"/>
<path d="M1814.61 832.15H1826.72L1827.42 844.989C1829.76 841.824 1832.57 839.127 1835.85 836.899C1839.24 834.671 1842.93 833.147 1846.9 832.326C1851 831.388 1855.33 831.329 1859.89 832.15V845.341C1854.98 844.403 1850.53 844.403 1846.55 845.341C1842.69 846.279 1839.36 848.038 1836.55 850.618C1833.74 853.197 1831.58 856.48 1830.05 860.467C1828.53 864.336 1827.77 868.85 1827.77 874.009V920.09H1814.61V832.15Z" fill="black"/>
<path d="M1930.34 832.15H1944.03L1893.83 955.266H1881.19L1896.11 918.859L1860.66 832.15H1875.05L1903.13 903.205L1930.34 832.15Z" fill="black"/>
<path d="M2077.94 809.286H2011.42V851.321H2061.44V863.633H2011.42V907.778H2077.94V920.09H1997.38V796.974H2077.94V809.286Z" fill="black"/>
<path d="M2095.91 793.457H2109.24V870.316H2117.32L2151.89 832.15H2170.5L2129.08 876.12L2170.67 920.09H2151.89L2117.32 881.748H2109.24V920.09H2095.91V793.457Z" fill="black"/>
<path d="M2217.64 921.321C2209.33 921.321 2201.9 919.504 2195.35 915.869C2188.8 912.234 2183.65 907.075 2179.9 900.391C2176.16 893.591 2174.29 885.559 2174.29 876.296C2174.29 866.916 2176.16 858.825 2179.9 852.025C2183.76 845.224 2188.97 840.006 2195.52 836.371C2202.19 832.736 2209.68 830.919 2217.99 830.919C2226.3 830.919 2233.73 832.736 2240.28 836.371C2246.95 840.006 2252.16 845.224 2255.9 852.025C2259.76 858.708 2261.69 866.681 2261.69 875.944C2261.69 885.324 2259.76 893.415 2255.9 900.215C2252.04 907.016 2246.77 912.234 2240.1 915.869C2233.43 919.504 2225.95 921.321 2217.64 921.321ZM2217.46 908.834C2222.61 908.834 2227.47 907.72 2232.03 905.492C2236.59 903.147 2240.28 899.571 2243.09 894.763C2246.01 889.839 2247.48 883.624 2247.48 876.12C2247.48 868.499 2246.07 862.284 2243.26 857.477C2240.46 852.669 2236.77 849.152 2232.21 846.924C2227.76 844.579 2222.96 843.406 2217.81 843.406C2212.67 843.406 2207.87 844.579 2203.42 846.924C2198.98 849.152 2195.35 852.728 2192.54 857.653C2189.85 862.46 2188.5 868.616 2188.5 876.12C2188.5 883.741 2189.85 889.956 2192.54 894.763C2195.23 899.571 2198.74 903.147 2203.07 905.492C2207.52 907.72 2212.31 908.834 2217.46 908.834Z" fill="black"/>
<path d="M2276.23 832.15H2288.34L2289.05 844.638C2291.85 840.299 2295.54 836.958 2300.1 834.613C2304.67 832.15 2309.99 830.919 2316.07 830.919C2322.74 830.919 2328.59 832.385 2333.63 835.316C2338.66 838.13 2342.58 842.41 2345.39 848.155C2348.19 853.783 2349.6 860.877 2349.6 869.437V920.09H2336.43V871.02C2336.43 861.874 2334.45 854.956 2330.47 850.266C2326.61 845.458 2320.99 843.055 2313.62 843.055C2306.01 843.055 2300.04 845.576 2295.72 850.618C2291.5 855.659 2289.4 863.105 2289.4 872.954V920.09H2276.23V832.15Z" fill="black"/>
<path d="M2406.02 921.321C2397.71 921.321 2390.28 919.504 2383.73 915.869C2377.18 912.234 2372.03 907.075 2368.29 900.391C2364.54 893.591 2362.67 885.559 2362.67 876.296C2362.67 866.916 2364.54 858.825 2368.29 852.025C2372.15 845.224 2377.35 840.006 2383.91 836.371C2390.58 832.736 2398.07 830.919 2406.37 830.919C2414.68 830.919 2422.11 832.736 2428.66 836.371C2435.33 840.006 2440.54 845.224 2444.28 852.025C2448.15 858.708 2450.08 866.681 2450.08 875.944C2450.08 885.324 2448.15 893.415 2444.28 900.215C2440.42 907.016 2435.16 912.234 2428.49 915.869C2421.82 919.504 2414.33 921.321 2406.02 921.321ZM2405.85 908.834C2410.99 908.834 2415.85 907.72 2420.41 905.492C2424.98 903.147 2428.66 899.571 2431.47 894.763C2434.4 889.839 2435.86 883.624 2435.86 876.12C2435.86 868.499 2434.46 862.284 2431.65 857.477C2428.84 852.669 2425.15 849.152 2420.59 846.924C2416.14 844.579 2411.35 843.406 2406.2 843.406C2401.05 843.406 2396.25 844.579 2391.81 846.924C2387.36 849.152 2383.73 852.728 2380.92 857.653C2378.23 862.46 2376.89 868.616 2376.89 876.12C2376.89 883.741 2378.23 889.956 2380.92 894.763C2383.61 899.571 2387.12 903.147 2391.45 905.492C2395.9 907.72 2400.7 908.834 2405.85 908.834Z" fill="black"/>
<path d="M2464.62 832.15H2476.73L2477.6 844.814C2480.18 840.592 2483.63 837.251 2487.96 834.788C2492.41 832.209 2497.67 830.919 2503.76 830.919C2509.96 830.919 2515.57 832.443 2520.61 835.492C2525.75 838.423 2529.73 842.82 2532.54 848.683C2535.23 842.703 2539.33 838.247 2544.83 835.316C2550.33 832.385 2556.41 830.919 2563.08 830.919C2569.63 830.919 2575.42 832.385 2580.46 835.316C2585.49 838.13 2589.41 842.41 2592.22 848.155C2595.02 853.783 2596.43 860.877 2596.43 869.437V920.09H2583.26V871.02C2583.26 861.874 2581.27 854.956 2577.3 850.266C2573.44 845.458 2567.88 843.055 2560.62 843.055C2553.25 843.055 2547.4 845.634 2543.07 850.793C2538.74 855.835 2536.58 863.339 2536.58 873.306V920.09H2523.41V871.02C2523.41 861.874 2521.54 854.956 2517.8 850.266C2514.05 845.458 2508.55 843.055 2501.3 843.055C2493.93 843.055 2488.14 845.634 2483.92 850.793C2479.83 855.835 2477.78 863.339 2477.78 873.306V920.09H2464.62V832.15Z" fill="black"/>
<path d="M2617.57 832.15H2630.56V920.09H2617.57V832.15ZM2624.24 814.562C2621.55 814.562 2619.33 813.683 2617.57 811.924C2615.82 810.165 2614.94 807.996 2614.94 805.417C2614.94 802.72 2615.82 800.492 2617.57 798.733C2619.33 796.974 2621.55 796.095 2624.24 796.095C2626.7 796.095 2628.81 796.974 2630.56 798.733C2632.43 800.492 2633.37 802.72 2633.37 805.417C2633.37 807.996 2632.43 810.165 2630.56 811.924C2628.81 813.683 2626.7 814.562 2624.24 814.562Z" fill="black"/>
<path d="M2696.75 796.974H2710.79V851.321H2716.76L2767.48 796.974H2785.56L2729.04 857.477L2786.08 920.09H2767.48L2716.58 863.633H2710.79V920.09H2696.75V796.974Z" fill="black"/>
<path d="M2794.93 832.15H2807.04L2807.75 844.989C2810.09 841.824 2812.89 839.127 2816.17 836.899C2819.56 834.671 2823.25 833.147 2827.23 832.326C2831.32 831.388 2835.65 831.329 2840.22 832.15V845.341C2835.3 844.403 2830.85 844.403 2826.88 845.341C2823.02 846.279 2819.68 848.038 2816.87 850.618C2814.06 853.197 2811.9 856.48 2810.38 860.467C2808.86 864.336 2808.1 868.85 2808.1 874.009V920.09H2794.93V832.15Z" fill="black"/>
<path d="M2888.02 921.321C2879.83 921.321 2872.51 919.328 2866.08 915.341C2859.76 911.354 2854.79 905.902 2851.16 898.984C2847.53 892.066 2845.72 884.152 2845.72 875.241C2845.72 866.681 2847.53 859.06 2851.16 852.376C2854.79 845.693 2859.76 840.475 2866.08 836.723C2872.4 832.854 2879.59 830.919 2887.67 830.919C2895.62 830.919 2902.7 832.678 2908.9 836.195C2915.22 839.713 2920.14 844.579 2923.65 850.793C2927.16 857.008 2928.8 864.102 2928.56 872.075C2928.56 873.365 2928.5 874.713 2928.39 876.12C2928.27 877.527 2928.15 879.051 2928.03 880.693H2860.11C2860.34 886.204 2861.69 891.07 2864.15 895.291C2866.6 899.512 2869.82 902.854 2873.8 905.316C2877.9 907.661 2882.52 908.834 2887.67 908.834C2894.45 908.834 2900.19 907.544 2904.87 904.964C2909.66 902.385 2913.12 898.691 2915.22 893.884L2926.63 898.457C2923.12 905.844 2918.03 911.53 2911.36 915.517C2904.69 919.386 2896.91 921.321 2888.02 921.321ZM2914.17 869.261C2914.29 864.219 2913.17 859.763 2910.83 855.894C2908.61 852.025 2905.45 848.976 2901.36 846.748C2897.26 844.52 2892.52 843.406 2887.14 843.406C2882.46 843.406 2878.19 844.52 2874.33 846.748C2870.47 848.976 2867.25 852.083 2864.67 856.07C2862.22 859.939 2860.75 864.336 2860.29 869.261H2914.17Z" fill="black"/>
<path d="M2998.14 920.09L2997.09 904.261C2994.63 909.654 2991.01 913.875 2986.21 916.924C2981.41 919.855 2975.33 921.321 2967.96 921.321C2961.64 921.321 2956.25 920.324 2951.81 918.331C2947.36 916.338 2943.91 913.524 2941.45 909.889C2939.11 906.137 2937.94 901.74 2937.94 896.698C2937.94 889.311 2940.69 883.272 2946.19 878.582C2951.69 873.775 2959.65 870.844 2970.06 869.788L2997.09 866.798V859.763C2997.09 854.839 2995.28 850.911 2991.65 847.979C2988.02 844.931 2983.11 843.406 2976.91 843.406C2970.82 843.406 2965.73 844.814 2961.64 847.628C2957.66 850.442 2954.91 854.487 2953.39 859.763L2941.45 855.542C2943.79 847.803 2948.06 841.765 2954.27 837.427C2960.58 833.088 2968.25 830.919 2977.26 830.919C2987.67 830.919 2995.75 833.616 3001.48 839.009C3007.33 844.286 3010.26 851.497 3010.26 860.643V920.09H2998.14ZM2997.09 878.055L2969.89 881.22C2964.04 881.924 2959.59 883.566 2956.55 886.145C2953.51 888.607 2951.98 891.891 2951.98 895.994C2951.98 900.098 2953.45 903.381 2956.37 905.844C2959.41 908.306 2963.74 909.537 2969.36 909.537C2975.8 909.537 2981.06 908.247 2985.16 905.668C2989.25 903.088 2992.24 899.629 2994.11 895.291C2996.1 890.835 2997.09 886.028 2997.09 880.869V878.055Z" fill="black"/>
<path d="M3034.53 832.15V807.527H3047.7V832.15H3071.04V844.462H3047.7V891.773C3047.7 897.167 3048.81 901.095 3051.03 903.557C3053.37 906.019 3056.3 907.485 3059.81 907.954C3063.43 908.423 3067.18 908.423 3071.04 907.954V919.386C3066.48 920.442 3061.97 920.735 3057.52 920.266C3053.2 919.797 3049.28 918.507 3045.77 916.396C3042.37 914.169 3039.62 911.061 3037.52 907.075C3035.53 903.088 3034.53 897.988 3034.53 891.773V844.462H3021.37V832.15H3034.53Z" fill="black"/>
<path d="M3086.23 832.15H3099.22V920.09H3086.23V832.15ZM3092.9 814.562C3090.21 814.562 3087.99 813.683 3086.23 811.924C3084.48 810.165 3083.6 807.996 3083.6 805.417C3083.6 802.72 3084.48 800.492 3086.23 798.733C3087.99 796.974 3090.21 796.095 3092.9 796.095C3095.36 796.095 3097.46 796.974 3099.22 798.733C3101.09 800.492 3102.03 802.72 3102.03 805.417C3102.03 807.996 3101.09 810.165 3099.22 811.924C3097.46 813.683 3095.36 814.562 3092.9 814.562Z" fill="black"/>
<path d="M3126.57 821.773C3126.57 815.324 3127.62 809.872 3129.73 805.417C3131.83 800.961 3135.17 797.737 3139.73 795.743C3144.41 793.633 3150.61 792.871 3158.34 793.457V805.241C3151.32 804.654 3146.46 805.827 3143.77 808.758C3141.08 811.572 3139.73 815.911 3139.73 821.773V832.15H3159.04V844.462H3139.73V920.09H3126.57V844.462H3114.28V832.15H3126.57V821.773Z" fill="black"/>
<path d="M3309.19 796.974V920.09H3294.97L3229.33 819.487V920.09H3215.29V796.974H3229.51L3295.15 897.401V796.974H3309.19Z" fill="black"/>
<path d="M3398.01 832.15H3410.12V903.909C3410.12 914.696 3407.72 923.901 3402.93 931.522C3398.13 939.261 3391.17 945.123 3382.04 949.11C3372.91 953.214 3361.8 955.266 3348.69 955.266L3346.59 943.13C3363.09 942.895 3375.61 939.437 3384.15 932.753C3392.69 926.187 3396.96 916.572 3396.96 903.909V901.974L3398.36 902.326C3395.67 907.485 3391.64 911.941 3386.25 915.693C3380.87 919.328 3373.91 921.204 3365.37 921.321C3357.29 921.321 3350.21 919.504 3344.13 915.869C3338.16 912.117 3333.48 906.84 3330.09 900.04C3326.81 893.239 3325.17 885.266 3325.17 876.12C3325.17 866.974 3326.81 859.06 3330.09 852.376C3333.48 845.576 3338.16 840.299 3344.13 836.547C3350.21 832.795 3357.29 830.919 3365.37 830.919C3370.63 830.919 3375.31 831.74 3379.41 833.381C3383.5 834.906 3387.01 837.016 3389.94 839.713C3392.86 842.293 3395.26 845.224 3397.14 848.507L3398.01 832.15ZM3339.39 876.12C3339.39 886.204 3341.97 894.236 3347.11 900.215C3352.38 906.078 3359.46 909.009 3368.35 909.009C3373.73 909.009 3378.59 907.72 3382.92 905.14C3387.25 902.561 3390.64 898.808 3393.1 893.884C3395.67 888.959 3396.96 883.038 3396.96 876.12C3396.96 869.202 3395.67 863.339 3393.1 858.532C3390.64 853.607 3387.25 849.855 3382.92 847.276C3378.59 844.579 3373.73 843.231 3368.35 843.231C3359.58 843.231 3352.55 846.221 3347.29 852.2C3342.02 858.18 3339.39 866.154 3339.39 876.12Z" fill="black"/>
<path d="M3484.97 920.09L3483.92 904.261C3481.46 909.654 3477.83 913.875 3473.04 916.924C3468.24 919.855 3462.15 921.321 3454.78 921.321C3448.46 921.321 3443.08 920.324 3438.63 918.331C3434.19 916.338 3430.74 913.524 3428.28 909.889C3425.94 906.137 3424.77 901.74 3424.77 896.698C3424.77 889.311 3427.52 883.272 3433.02 878.582C3438.52 873.775 3446.47 870.844 3456.89 869.788L3483.92 866.798V859.763C3483.92 854.839 3482.1 850.911 3478.48 847.979C3474.85 844.931 3469.94 843.406 3463.73 843.406C3457.65 843.406 3452.56 844.814 3448.46 847.628C3444.49 850.442 3441.74 854.487 3440.21 859.763L3428.28 855.542C3430.62 847.803 3434.89 841.765 3441.09 837.427C3447.41 833.088 3455.07 830.919 3464.08 830.919C3474.5 830.919 3482.57 833.616 3488.31 839.009C3494.16 844.286 3497.08 851.497 3497.08 860.643V920.09H3484.97ZM3483.92 878.055L3456.71 881.22C3450.86 881.924 3446.42 883.566 3443.37 886.145C3440.33 888.607 3438.81 891.891 3438.81 895.994C3438.81 900.098 3440.27 903.381 3443.2 905.844C3446.24 908.306 3450.57 909.537 3456.19 909.537C3462.62 909.537 3467.89 908.247 3471.98 905.668C3476.08 903.088 3479.06 899.629 3480.93 895.291C3482.92 890.835 3483.92 886.028 3483.92 880.869V878.055Z" fill="black"/>
<path d="M3515.74 832.15H3527.85L3528.55 844.638C3531.36 840.299 3535.05 836.958 3539.61 834.613C3544.18 832.15 3549.5 830.919 3555.58 830.919C3562.25 830.919 3568.1 832.385 3573.14 835.316C3578.17 838.13 3582.09 842.41 3584.89 848.155C3587.7 853.783 3589.11 860.877 3589.11 869.437V920.09H3575.94V871.02C3575.94 861.874 3573.95 854.956 3569.98 850.266C3566.11 845.458 3560.5 843.055 3553.13 843.055C3545.52 843.055 3539.55 845.576 3535.22 850.618C3531.01 855.659 3528.91 863.105 3528.91 872.954V920.09H3515.74V832.15Z" fill="black"/>
<path d="M3609.55 917.803V832.15H3622.71V917.979C3622.71 925.601 3621.19 932.167 3618.15 937.678C3615.23 943.189 3611.25 947.41 3606.22 950.341C3601.3 953.39 3595.92 955.031 3590.07 955.266L3588.14 943.13C3594.92 942.544 3600.19 940.023 3603.93 935.567C3607.68 931.229 3609.55 925.308 3609.55 917.803ZM3616.22 814.562C3618.79 814.562 3620.96 813.683 3622.71 811.924C3624.47 810.165 3625.35 807.996 3625.35 805.417C3625.35 802.72 3624.47 800.492 3622.71 798.733C3620.96 796.974 3618.79 796.095 3616.22 796.095C3613.65 796.095 3611.42 796.974 3609.55 798.733C3607.8 800.492 3606.92 802.72 3606.92 805.417C3606.92 807.996 3607.8 810.165 3609.55 811.924C3611.42 813.683 3613.65 814.562 3616.22 814.562Z" fill="black"/>
<path d="M3716.43 920.09H3704.5L3703.62 907.426C3700.93 911.882 3697.3 915.341 3692.74 917.803C3688.18 920.148 3682.85 921.321 3676.77 921.321C3669.98 921.321 3664.07 919.914 3659.04 917.1C3654.01 914.286 3650.09 910.065 3647.28 904.437C3644.59 898.808 3643.24 891.715 3643.24 883.155V832.15H3656.23V881.748C3656.23 890.777 3658.16 897.636 3662.02 902.326C3666 906.899 3671.68 909.185 3679.05 909.185C3686.54 909.185 3692.45 906.782 3696.78 901.974C3701.22 897.05 3703.45 889.663 3703.45 879.813V832.15H3716.43V920.09Z" fill="black"/>
<path d="M3736.18 793.457H3749.52V870.316H3757.6L3792.17 832.15H3810.78L3769.36 876.12L3810.95 920.09H3792.17L3757.6 881.748H3749.52V920.09H3736.18V793.457Z" fill="black"/>
</svg>
