<svg width="4165" height="1063" viewBox="0 0 4165 1063" fill="none" xmlns="http://www.w3.org/2000/svg">
<path fill-rule="evenodd" clip-rule="evenodd" d="M259.646 1043.34C259.646 1043.34 137.816 1006.67 59.0179 879.073C-7.55259 771.277 -37.7657 590.778 77.5008 438.748C305.258 138.348 319.605 0.210938 319.605 0.210938C319.605 0.210938 741.689 351.398 510.693 662.935C356.135 871.382 459.379 1062.42 459.379 1062.42C459.379 1062.42 212.246 826.902 317.479 647.433C419.554 473.35 341.963 369.285 341.963 369.285C341.963 369.285 211.484 490.621 163.953 647.433C116.421 804.245 259.646 1043.34 259.646 1043.34Z" fill="white"/>
<path d="M761.983 835.283C855.601 591.589 703.781 422.672 703.781 422.672C703.781 422.672 701.499 606.789 548.681 741.738C461.288 818.912 434.547 912.363 501.554 968.45C586.263 1039.35 720.827 942.414 761.983 835.283Z" fill="white"/>
<path d="M1102.48 122.707H1179.09V355.101H1206.68L1416.61 122.707H1513.15L1274.87 387.314L1516.22 659.592H1415.85L1205.91 419.528H1179.09V659.592H1102.48V122.707Z" fill="white"/>
<path d="M1549.82 276.103H1615.71L1620.31 327.49C1631.03 314.196 1643.29 303.202 1657.08 294.51C1671.39 285.306 1686.71 278.915 1703.06 275.336C1719.91 271.756 1737.28 272.012 1755.16 276.103V344.364C1738.3 340.273 1721.96 339.762 1706.12 342.83C1690.29 345.898 1675.98 352.545 1663.21 362.771C1650.96 372.486 1641 385.525 1633.33 401.887C1625.67 418.249 1621.84 437.935 1621.84 460.944V659.592H1549.82V276.103Z" fill="white"/>
<path d="M1963.77 664.961C1927 664.961 1894.31 656.524 1865.7 639.651C1837.61 622.266 1815.39 598.489 1799.04 568.322C1783.21 538.154 1775.29 503.64 1775.29 464.779C1775.29 427.453 1783.21 394.217 1799.04 365.072C1814.88 335.927 1836.59 312.918 1864.17 296.044C1892.26 279.17 1923.93 270.734 1959.18 270.734C1994.93 270.734 2026.6 278.659 2054.18 294.51C2081.77 309.85 2103.22 331.581 2118.54 359.703C2133.87 387.314 2141.27 419.272 2140.76 455.576C2140.76 461.711 2140.51 468.103 2140 474.75C2139.48 480.886 2138.72 487.789 2137.7 495.459H1854.21C1855.74 515.911 1861.36 534.063 1871.07 549.914C1881.28 565.254 1894.05 577.27 1909.37 585.962C1925.21 594.654 1943.09 599.001 1963.01 599.001C1988.55 599.001 2010.77 594.143 2029.67 584.428C2048.56 574.202 2061.84 560.652 2069.51 543.778L2132.33 566.021C2117.01 597.211 2094.54 621.499 2064.91 638.884C2035.79 656.268 2002.08 664.961 1963.77 664.961ZM2061.84 433.333C2061.84 414.926 2057.25 398.308 2048.05 383.48C2038.86 368.651 2026.34 357.147 2010.51 348.966C1995.19 340.273 1977.82 335.927 1958.41 335.927C1941.04 335.927 1924.95 340.273 1910.14 348.966C1895.84 357.147 1883.58 368.651 1873.36 383.48C1863.66 397.797 1857.53 414.414 1854.98 433.333H2061.84Z" fill="white"/>
<path d="M2432.28 659.592L2426.15 603.603C2414.4 623.033 2399.07 638.117 2380.18 648.854C2361.79 659.081 2337.78 664.194 2308.15 664.194C2280.57 664.194 2257.08 659.848 2237.67 651.155C2218.26 641.952 2203.19 629.424 2192.46 613.573C2182.25 597.211 2177.14 578.292 2177.14 556.817C2177.14 524.604 2189.14 498.015 2213.15 477.051C2237.15 455.576 2271.89 442.281 2317.35 437.168L2426.15 424.896V394.984C2426.15 378.622 2419.51 364.816 2406.23 353.567C2392.95 341.807 2373.79 335.927 2348.76 335.927C2325.27 335.927 2305.35 341.551 2289 352.8C2272.65 363.538 2261.67 379.645 2256.05 401.12L2191.69 378.111C2201.4 344.364 2220.3 318.031 2248.39 299.112C2277 280.193 2311.47 270.734 2351.83 270.734C2399.84 270.734 2436.36 282.75 2461.39 306.782C2486.42 330.814 2498.93 362.516 2498.93 401.887V659.592H2432.28ZM2426.15 483.954L2321.18 496.992C2298.7 500.06 2281.85 506.452 2270.61 516.167C2259.37 525.371 2253.76 537.642 2253.76 552.982C2253.76 567.299 2259.12 579.315 2269.85 589.03C2281.08 598.234 2296.66 602.836 2316.58 602.836C2341.1 602.836 2361.53 598.234 2377.88 589.03C2394.22 579.826 2406.23 567.043 2413.89 550.681C2422.06 533.807 2426.15 514.377 2426.15 492.391V483.954Z" fill="white"/>
<path d="M2614.89 538.409C2618.47 553.749 2624.6 565.765 2633.28 574.457C2641.96 583.15 2652.18 589.541 2663.93 593.632C2676.19 597.211 2688.96 599.001 2702.24 599.001C2725.22 599.001 2743.1 594.399 2755.87 585.195C2768.64 575.991 2775.02 564.487 2775.02 550.681C2775.02 538.921 2770.94 529.717 2762.76 523.07C2755.1 515.911 2744.63 510.287 2731.35 506.196C2718.58 502.106 2704.79 498.271 2689.98 494.692C2676.7 491.112 2662.14 487.022 2646.3 482.42C2630.98 477.818 2616.42 471.682 2602.63 464.012C2589.35 455.831 2578.37 445.605 2569.69 433.333C2561 420.55 2556.66 404.444 2556.66 385.014C2556.66 362.004 2562.79 342.063 2575.05 325.189C2587.82 307.804 2605.19 294.51 2627.15 285.306C2649.62 275.591 2674.91 270.734 2703 270.734C2735.69 270.734 2764.3 277.892 2788.81 292.209C2813.84 306.015 2831.98 326.979 2843.21 355.101L2778.09 376.577C2774.51 366.862 2768.64 358.936 2760.47 352.8C2752.29 346.665 2742.84 342.574 2732.12 340.529C2721.9 337.972 2711.69 336.694 2701.47 336.694C2682.06 336.694 2665.97 340.529 2653.2 348.199C2640.43 355.868 2634.05 367.117 2634.05 381.946C2634.05 390.127 2636.09 397.03 2640.17 402.654C2644.26 407.767 2649.88 412.113 2657.03 415.693C2664.69 418.761 2673.63 421.573 2683.85 424.13C2694.06 426.686 2705.04 429.498 2716.79 432.566C2732.12 437.168 2747.7 442.281 2763.53 447.906C2779.36 453.019 2793.92 459.666 2807.2 467.847C2820.48 476.028 2831.21 486.766 2839.38 500.06C2847.55 513.355 2851.9 529.717 2852.41 549.147C2852.41 571.645 2846.02 591.587 2833.25 608.971C2820.99 626.356 2803.37 640.162 2780.39 650.388C2757.91 660.103 2731.1 664.961 2699.94 664.961C2662.14 664.961 2629.96 656.524 2603.4 639.651C2576.84 622.777 2558.96 596.7 2549.77 561.419L2614.89 538.409Z" fill="white"/>
<path d="M2920.96 276.103H2993.74V659.592H2920.96V276.103ZM2957.73 208.608C2943.94 208.608 2932.45 204.007 2923.26 194.803C2914.06 185.599 2909.46 174.35 2909.46 161.056C2909.46 147.25 2914.06 135.745 2923.26 126.542C2932.45 116.827 2943.94 111.969 2957.73 111.969C2971.01 111.969 2982.25 116.827 2991.45 126.542C3001.15 135.745 3006 147.25 3006 161.056C3006 174.35 3001.15 185.599 2991.45 194.803C2982.25 204.007 2971.01 208.608 2957.73 208.608Z" fill="white"/>
<path d="M3083.83 107.367H3156.62V436.401H3188.03L3331.31 276.103H3429.38L3251.62 467.847L3430.14 659.592H3331.31L3188.03 498.526H3156.62V659.592H3083.83V107.367Z" fill="white"/>
<path d="M3699.14 659.592L3693.01 603.603C3681.26 623.033 3665.94 638.117 3647.04 648.854C3628.65 659.081 3604.64 664.194 3575.02 664.194C3547.44 664.194 3523.94 659.848 3504.53 651.155C3485.12 641.952 3470.05 629.424 3459.33 613.573C3449.11 597.211 3444 578.292 3444 556.817C3444 524.604 3456.01 498.015 3480.01 477.051C3504.02 455.576 3538.75 442.281 3584.21 437.168L3693.01 424.896V394.984C3693.01 378.622 3686.37 364.816 3673.09 353.567C3659.81 341.807 3640.66 335.927 3615.63 335.927C3592.13 335.927 3572.21 341.551 3555.86 352.8C3539.52 363.538 3528.54 379.645 3522.92 401.12L3458.56 378.111C3468.26 344.364 3487.16 318.031 3515.26 299.112C3543.86 280.193 3578.34 270.734 3618.69 270.734C3666.71 270.734 3703.23 282.75 3728.26 306.782C3753.28 330.814 3765.8 362.516 3765.8 401.887V659.592H3699.14ZM3693.01 483.954L3588.04 496.992C3565.57 500.06 3548.71 506.452 3537.48 516.167C3526.24 525.371 3520.62 537.642 3520.62 552.982C3520.62 567.299 3525.98 579.315 3536.71 589.03C3547.95 598.234 3563.53 602.836 3583.45 602.836C3607.96 602.836 3628.4 598.234 3644.74 589.03C3661.09 579.826 3673.09 567.043 3680.75 550.681C3688.92 533.807 3693.01 514.377 3693.01 492.391V483.954Z" fill="white"/>
<path d="M3838.85 276.103H3904.74L3909.34 320.587C3921.6 304.736 3937.18 292.465 3956.08 283.772C3974.97 275.08 3995.92 270.734 4018.9 270.734C4048.53 270.734 4074.07 277.125 4095.52 289.908C4117.48 302.18 4134.34 320.587 4146.09 345.131C4158.35 369.674 4164.48 400.353 4164.48 437.168V659.592H4092.46V446.372C4092.46 410.58 4084.79 383.48 4069.47 365.072C4054.66 346.153 4032.95 336.694 4004.34 336.694C3974.72 336.694 3951.73 346.409 3935.39 365.839C3919.04 384.758 3910.87 412.88 3910.87 450.207V939.367H3838.85V276.103Z" fill="white"/>
<path d="M1183.56 809.286H1117.04V851.321H1167.06V863.633H1117.04V907.778H1183.56V920.09H1103V796.974H1183.56V809.286Z" fill="white"/>
<path d="M1199.25 865.215H1268.4V877.175H1199.25V865.215Z" fill="white"/>
<path d="M1353.79 849.914L1352.38 850.09V793.457H1365.54V920.09H1353.43L1352.56 903.733C1349.87 908.658 1345.83 912.82 1340.45 916.22C1335.18 919.621 1328.63 921.321 1320.79 921.321C1312.72 921.321 1305.64 919.504 1299.55 915.869C1293.58 912.117 1288.9 906.84 1285.51 900.04C1282.23 893.239 1280.6 885.266 1280.6 876.12C1280.6 866.974 1282.23 859.06 1285.51 852.376C1288.9 845.576 1293.58 840.299 1299.55 836.547C1305.64 832.795 1312.72 830.919 1320.79 830.919C1329.1 830.919 1336 832.736 1341.5 836.371C1347 840.006 1351.09 844.52 1353.79 849.914ZM1294.81 876.12C1294.81 886.204 1297.39 894.236 1302.54 900.215C1307.68 906.078 1314.7 909.009 1323.6 909.009C1329.1 909.009 1334.01 907.72 1338.34 905.14C1342.67 902.561 1346.06 898.808 1348.52 893.884C1351.09 888.959 1352.38 883.038 1352.38 876.12C1352.38 869.202 1351.09 863.339 1348.52 858.532C1346.06 853.607 1342.67 849.855 1338.34 847.276C1334.01 844.579 1329.1 843.231 1323.6 843.231C1314.82 843.231 1307.8 846.221 1302.54 852.2C1297.39 858.063 1294.81 866.036 1294.81 876.12Z" fill="white"/>
<path d="M1388.09 832.15H1401.08V920.09H1388.09V832.15ZM1394.76 814.562C1392.07 814.562 1389.84 813.683 1388.09 811.924C1386.33 810.165 1385.46 807.996 1385.46 805.417C1385.46 802.72 1386.33 800.492 1388.09 798.733C1389.84 796.974 1392.07 796.095 1394.76 796.095C1397.22 796.095 1399.32 796.974 1401.08 798.733C1402.95 800.492 1403.89 802.72 1403.89 805.417C1403.89 807.996 1402.95 810.165 1401.08 811.924C1399.32 813.683 1397.22 814.562 1394.76 814.562Z" fill="white"/>
<path d="M1423.69 832.15H1435.8L1436.5 844.989C1438.84 841.824 1441.65 839.127 1444.92 836.899C1448.32 834.671 1452 833.147 1455.98 832.326C1460.08 831.388 1464.4 831.329 1468.97 832.15V845.341C1464.05 844.403 1459.61 844.403 1455.63 845.341C1451.77 846.279 1448.43 848.038 1445.62 850.618C1442.82 853.197 1440.65 856.48 1439.13 860.467C1437.61 864.336 1436.85 868.85 1436.85 874.009V920.09H1423.69V832.15Z" fill="white"/>
<path d="M1516.77 921.321C1508.58 921.321 1501.27 919.328 1494.83 915.341C1488.51 911.354 1483.54 905.902 1479.91 898.984C1476.28 892.066 1474.47 884.152 1474.47 875.241C1474.47 866.681 1476.28 859.06 1479.91 852.376C1483.54 845.693 1488.51 840.475 1494.83 836.723C1501.15 832.854 1508.35 830.919 1516.42 830.919C1524.38 830.919 1531.45 832.678 1537.66 836.195C1543.97 839.713 1548.89 844.579 1552.4 850.793C1555.91 857.008 1557.55 864.102 1557.31 872.075C1557.31 873.365 1557.26 874.713 1557.14 876.12C1557.02 877.527 1556.9 879.051 1556.79 880.693H1488.86C1489.1 886.204 1490.44 891.07 1492.9 895.291C1495.36 899.512 1498.57 902.854 1502.55 905.316C1506.65 907.661 1511.27 908.834 1516.42 908.834C1523.21 908.834 1528.94 907.544 1533.62 904.964C1538.42 902.385 1541.87 898.691 1543.97 893.884L1555.38 898.457C1551.87 905.844 1546.78 911.53 1540.11 915.517C1533.44 919.386 1525.66 921.321 1516.77 921.321ZM1542.92 869.261C1543.04 864.219 1541.93 859.763 1539.59 855.894C1537.36 852.025 1534.2 848.976 1530.11 846.748C1526.01 844.52 1521.27 843.406 1515.89 843.406C1511.21 843.406 1506.94 844.52 1503.08 846.748C1499.22 848.976 1496 852.083 1493.43 856.07C1490.97 859.939 1489.51 864.336 1489.04 869.261H1542.92Z" fill="white"/>
<path d="M1609.35 921.321C1600.8 921.321 1593.32 919.445 1586.88 915.693C1580.44 911.941 1575.41 906.723 1571.79 900.04C1568.27 893.239 1566.52 885.383 1566.52 876.472C1566.52 867.443 1568.27 859.529 1571.79 852.728C1575.41 845.81 1580.44 840.475 1586.88 836.723C1593.32 832.854 1600.8 830.919 1609.35 830.919C1618.36 830.919 1626.25 833.03 1633.04 837.251C1639.83 841.355 1644.74 847.1 1647.78 854.487L1635.67 858.708C1633.92 854.018 1630.7 850.324 1626.02 847.628C1621.46 844.814 1616.13 843.406 1610.05 843.406C1604.08 843.406 1598.87 844.755 1594.43 847.452C1590.1 850.149 1586.7 853.959 1584.25 858.884C1581.91 863.808 1580.74 869.612 1580.74 876.296C1580.74 886.145 1583.37 894.06 1588.63 900.04C1593.9 905.902 1600.92 908.834 1609.7 908.834C1615.66 908.834 1620.99 907.485 1625.67 904.788C1630.35 902.091 1633.8 898.457 1636.02 893.884L1647.96 898.105C1644.8 905.375 1639.83 911.061 1633.04 915.165C1626.25 919.269 1618.36 921.321 1609.35 921.321Z" fill="white"/>
<path d="M1668.08 832.15V807.527H1681.25V832.15H1704.59V844.462H1681.25V891.773C1681.25 897.167 1682.36 901.095 1684.58 903.557C1686.92 906.019 1689.85 907.485 1693.36 907.954C1696.99 908.423 1700.73 908.423 1704.59 907.954V919.386C1700.03 920.442 1695.52 920.735 1691.08 920.266C1686.75 919.797 1682.83 918.507 1679.32 916.396C1675.92 914.169 1673.17 911.061 1671.07 907.075C1669.08 903.088 1668.08 897.988 1668.08 891.773V844.462H1654.92V832.15H1668.08Z" fill="white"/>
<path d="M1755.06 921.321C1746.75 921.321 1739.32 919.504 1732.77 915.869C1726.22 912.234 1721.07 907.075 1717.33 900.391C1713.58 893.591 1711.71 885.559 1711.71 876.296C1711.71 866.916 1713.58 858.825 1717.33 852.025C1721.19 845.224 1726.39 840.006 1732.95 836.371C1739.62 832.736 1747.11 830.919 1755.41 830.919C1763.72 830.919 1771.15 832.736 1777.7 836.371C1784.37 840.006 1789.58 845.224 1793.32 852.025C1797.19 858.708 1799.12 866.681 1799.12 875.944C1799.12 885.324 1797.19 893.415 1793.32 900.215C1789.46 907.016 1784.2 912.234 1777.53 915.869C1770.86 919.504 1763.37 921.321 1755.06 921.321ZM1754.89 908.834C1760.04 908.834 1764.89 907.72 1769.45 905.492C1774.02 903.147 1777.7 899.571 1780.51 894.763C1783.44 889.839 1784.9 883.624 1784.9 876.12C1784.9 868.499 1783.5 862.284 1780.69 857.477C1777.88 852.669 1774.19 849.152 1769.63 846.924C1765.18 844.579 1760.39 843.406 1755.24 843.406C1750.09 843.406 1745.29 844.579 1740.85 846.924C1736.4 849.152 1732.77 852.728 1729.96 857.653C1727.27 862.46 1725.93 868.616 1725.93 876.12C1725.93 883.741 1727.27 889.956 1729.96 894.763C1732.65 899.571 1736.17 903.147 1740.49 905.492C1744.94 907.72 1749.74 908.834 1754.89 908.834Z" fill="white"/>
<path d="M1813.66 832.15H1825.77L1826.47 844.989C1828.81 841.824 1831.62 839.127 1834.89 836.899C1838.29 834.671 1841.97 833.147 1845.95 832.326C1850.05 831.388 1854.38 831.329 1858.94 832.15V845.341C1854.02 844.403 1849.58 844.403 1845.6 845.341C1841.74 846.279 1838.4 848.038 1835.6 850.618C1832.79 853.197 1830.62 856.48 1829.1 860.467C1827.58 864.336 1826.82 868.85 1826.82 874.009V920.09H1813.66V832.15Z" fill="white"/>
<path d="M1929.38 832.15H1943.07L1892.88 955.266H1880.24L1895.16 918.859L1859.7 832.15H1874.1L1902.18 903.205L1929.38 832.15Z" fill="white"/>
<path d="M2076.98 809.286H2010.46V851.321H2060.49V863.633H2010.46V907.778H2076.98V920.09H1996.42V796.974H2076.98V809.286Z" fill="white"/>
<path d="M2094.95 793.457H2108.29V870.316H2116.37L2150.94 832.15H2169.55L2128.12 876.12L2169.72 920.09H2150.94L2116.37 881.748H2108.29V920.09H2094.95V793.457Z" fill="white"/>
<path d="M2216.69 921.321C2208.38 921.321 2200.95 919.504 2194.4 915.869C2187.84 912.234 2182.69 907.075 2178.95 900.391C2175.21 893.591 2173.33 885.559 2173.33 876.296C2173.33 866.916 2175.21 858.825 2178.95 852.025C2182.81 845.224 2188.02 840.006 2194.57 836.371C2201.24 832.736 2208.73 830.919 2217.04 830.919C2225.34 830.919 2232.77 832.736 2239.33 836.371C2246 840.006 2251.2 845.224 2254.95 852.025C2258.81 858.708 2260.74 866.681 2260.74 875.944C2260.74 885.324 2258.81 893.415 2254.95 900.215C2251.09 907.016 2245.82 912.234 2239.15 915.869C2232.48 919.504 2224.99 921.321 2216.69 921.321ZM2216.51 908.834C2221.66 908.834 2226.51 907.72 2231.08 905.492C2235.64 903.147 2239.33 899.571 2242.14 894.763C2245.06 889.839 2246.52 883.624 2246.52 876.12C2246.52 868.499 2245.12 862.284 2242.31 857.477C2239.5 852.669 2235.82 849.152 2231.25 846.924C2226.81 844.579 2222.01 843.406 2216.86 843.406C2211.71 843.406 2206.92 844.579 2202.47 846.924C2198.02 849.152 2194.4 852.728 2191.59 857.653C2188.9 862.46 2187.55 868.616 2187.55 876.12C2187.55 883.741 2188.9 889.956 2191.59 894.763C2194.28 899.571 2197.79 903.147 2202.12 905.492C2206.56 907.72 2211.36 908.834 2216.51 908.834Z" fill="white"/>
<path d="M2275.28 832.15H2287.39L2288.09 844.638C2290.9 840.299 2294.59 836.958 2299.15 834.613C2303.71 832.15 2309.04 830.919 2315.12 830.919C2321.79 830.919 2327.64 832.385 2332.67 835.316C2337.7 838.13 2341.62 842.41 2344.43 848.155C2347.24 853.783 2348.65 860.877 2348.65 869.437V920.09H2335.48V871.02C2335.48 861.874 2333.49 854.956 2329.51 850.266C2325.65 845.458 2320.04 843.055 2312.66 843.055C2305.06 843.055 2299.09 845.576 2294.76 850.618C2290.55 855.659 2288.44 863.105 2288.44 872.954V920.09H2275.28V832.15Z" fill="white"/>
<path d="M2405.07 921.321C2396.76 921.321 2389.33 919.504 2382.78 915.869C2376.23 912.234 2371.08 907.075 2367.33 900.391C2363.59 893.591 2361.72 885.559 2361.72 876.296C2361.72 866.916 2363.59 858.825 2367.33 852.025C2371.19 845.224 2376.4 840.006 2382.95 836.371C2389.62 832.736 2397.11 830.919 2405.42 830.919C2413.73 830.919 2421.16 832.736 2427.71 836.371C2434.38 840.006 2439.59 845.224 2443.33 852.025C2447.19 858.708 2449.12 866.681 2449.12 875.944C2449.12 885.324 2447.19 893.415 2443.33 900.215C2439.47 907.016 2434.2 912.234 2427.53 915.869C2420.86 919.504 2413.38 921.321 2405.07 921.321ZM2404.89 908.834C2410.04 908.834 2414.9 907.72 2419.46 905.492C2424.02 903.147 2427.71 899.571 2430.52 894.763C2433.44 889.839 2434.91 883.624 2434.91 876.12C2434.91 868.499 2433.5 862.284 2430.69 857.477C2427.89 852.669 2424.2 849.152 2419.64 846.924C2415.19 844.579 2410.39 843.406 2405.24 843.406C2400.1 843.406 2395.3 844.579 2390.85 846.924C2386.41 849.152 2382.78 852.728 2379.97 857.653C2377.28 862.46 2375.93 868.616 2375.93 876.12C2375.93 883.741 2377.28 889.956 2379.97 894.763C2382.66 899.571 2386.17 903.147 2390.5 905.492C2394.95 907.72 2399.74 908.834 2404.89 908.834Z" fill="white"/>
<path d="M2463.66 832.15H2475.77L2476.65 844.814C2479.23 840.592 2482.68 837.251 2487.01 834.788C2491.45 832.209 2496.72 830.919 2502.8 830.919C2509 830.919 2514.62 832.443 2519.65 835.492C2524.8 838.423 2528.78 842.82 2531.59 848.683C2534.28 842.703 2538.37 838.247 2543.87 835.316C2549.37 832.385 2555.46 830.919 2562.13 830.919C2568.68 830.919 2574.47 832.385 2579.5 835.316C2584.53 838.13 2588.45 842.41 2591.26 848.155C2594.07 853.783 2595.47 860.877 2595.47 869.437V920.09H2582.31V871.02C2582.31 861.874 2580.32 854.956 2576.34 850.266C2572.48 845.458 2566.92 843.055 2559.67 843.055C2552.3 843.055 2546.45 845.634 2542.12 850.793C2537.79 855.835 2535.62 863.339 2535.62 873.306V920.09H2522.46V871.02C2522.46 861.874 2520.59 854.956 2516.84 850.266C2513.1 845.458 2507.6 843.055 2500.35 843.055C2492.97 843.055 2487.18 845.634 2482.97 850.793C2478.87 855.835 2476.83 863.339 2476.83 873.306V920.09H2463.66V832.15Z" fill="white"/>
<path d="M2616.62 832.15H2629.61V920.09H2616.62V832.15ZM2623.29 814.562C2620.6 814.562 2618.38 813.683 2616.62 811.924C2614.87 810.165 2613.99 807.996 2613.99 805.417C2613.99 802.72 2614.87 800.492 2616.62 798.733C2618.38 796.974 2620.6 796.095 2623.29 796.095C2625.75 796.095 2627.85 796.974 2629.61 798.733C2631.48 800.492 2632.42 802.72 2632.42 805.417C2632.42 807.996 2631.48 810.165 2629.61 811.924C2627.85 813.683 2625.75 814.562 2623.29 814.562Z" fill="white"/>
<path d="M2695.79 796.974H2709.83V851.321H2715.8L2766.53 796.974H2784.6L2728.09 857.477L2785.13 920.09H2766.53L2715.63 863.633H2709.83V920.09H2695.79V796.974Z" fill="white"/>
<path d="M2793.98 832.15H2806.09L2806.79 844.989C2809.13 841.824 2811.94 839.127 2815.22 836.899C2818.61 834.671 2822.3 833.147 2826.27 832.326C2830.37 831.388 2834.7 831.329 2839.26 832.15V845.341C2834.35 844.403 2829.9 844.403 2825.92 845.341C2822.06 846.279 2818.73 848.038 2815.92 850.618C2813.11 853.197 2810.95 856.48 2809.43 860.467C2807.9 864.336 2807.14 868.85 2807.14 874.009V920.09H2793.98V832.15Z" fill="white"/>
<path d="M2887.06 921.321C2878.87 921.321 2871.56 919.328 2865.12 915.341C2858.81 911.354 2853.83 905.902 2850.21 898.984C2846.58 892.066 2844.77 884.152 2844.77 875.241C2844.77 866.681 2846.58 859.06 2850.21 852.376C2853.83 845.693 2858.81 840.475 2865.12 836.723C2871.44 832.854 2878.64 830.919 2886.71 830.919C2894.67 830.919 2901.75 832.678 2907.95 836.195C2914.27 839.713 2919.18 844.579 2922.69 850.793C2926.2 857.008 2927.84 864.102 2927.61 872.075C2927.61 873.365 2927.55 874.713 2927.43 876.12C2927.32 877.527 2927.2 879.051 2927.08 880.693H2859.16C2859.39 886.204 2860.74 891.07 2863.19 895.291C2865.65 899.512 2868.87 902.854 2872.85 905.316C2876.94 907.661 2881.56 908.834 2886.71 908.834C2893.5 908.834 2899.23 907.544 2903.91 904.964C2908.71 902.385 2912.16 898.691 2914.27 893.884L2925.68 898.457C2922.17 905.844 2917.08 911.53 2910.41 915.517C2903.74 919.386 2895.96 921.321 2887.06 921.321ZM2913.22 869.261C2913.33 864.219 2912.22 859.763 2909.88 855.894C2907.66 852.025 2904.5 848.976 2900.4 846.748C2896.31 844.52 2891.57 843.406 2886.19 843.406C2881.51 843.406 2877.24 844.52 2873.37 846.748C2869.51 848.976 2866.3 852.083 2863.72 856.07C2861.26 859.939 2859.8 864.336 2859.33 869.261H2913.22Z" fill="white"/>
<path d="M2997.19 920.09L2996.14 904.261C2993.68 909.654 2990.05 913.875 2985.26 916.924C2980.46 919.855 2974.37 921.321 2967 921.321C2960.68 921.321 2955.3 920.324 2950.86 918.331C2946.41 916.338 2942.96 913.524 2940.5 909.889C2938.16 906.137 2936.99 901.74 2936.99 896.698C2936.99 889.311 2939.74 883.272 2945.24 878.582C2950.74 873.775 2958.7 870.844 2969.11 869.788L2996.14 866.798V859.763C2996.14 854.839 2994.32 850.911 2990.7 847.979C2987.07 844.931 2982.16 843.406 2975.95 843.406C2969.87 843.406 2964.78 844.814 2960.68 847.628C2956.71 850.442 2953.96 854.487 2952.44 859.763L2940.5 855.542C2942.84 847.803 2947.11 841.765 2953.31 837.427C2959.63 833.088 2967.3 830.919 2976.31 830.919C2986.72 830.919 2994.79 833.616 3000.53 839.009C3006.38 844.286 3009.3 851.497 3009.3 860.643V920.09H2997.19ZM2996.14 878.055L2968.93 881.22C2963.08 881.924 2958.64 883.566 2955.59 886.145C2952.55 888.607 2951.03 891.891 2951.03 895.994C2951.03 900.098 2952.49 903.381 2955.42 905.844C2958.46 908.306 2962.79 909.537 2968.41 909.537C2974.84 909.537 2980.11 908.247 2984.2 905.668C2988.3 903.088 2991.28 899.629 2993.15 895.291C2995.14 890.835 2996.14 886.028 2996.14 880.869V878.055Z" fill="white"/>
<path d="M3033.58 832.15V807.527H3046.74V832.15H3070.09V844.462H3046.74V891.773C3046.74 897.167 3047.85 901.095 3050.08 903.557C3052.42 906.019 3055.34 907.485 3058.85 907.954C3062.48 908.423 3066.22 908.423 3070.09 907.954V919.386C3065.52 920.442 3061.02 920.735 3056.57 920.266C3052.24 919.797 3048.32 918.507 3044.81 916.396C3041.42 914.169 3038.67 911.061 3036.56 907.075C3034.57 903.088 3033.58 897.988 3033.58 891.773V844.462H3020.42V832.15H3033.58Z" fill="white"/>
<path d="M3085.28 832.15H3098.27V920.09H3085.28V832.15ZM3091.95 814.562C3089.26 814.562 3087.03 813.683 3085.28 811.924C3083.52 810.165 3082.65 807.996 3082.65 805.417C3082.65 802.72 3083.52 800.492 3085.28 798.733C3087.03 796.974 3089.26 796.095 3091.95 796.095C3094.41 796.095 3096.51 796.974 3098.27 798.733C3100.14 800.492 3101.08 802.72 3101.08 805.417C3101.08 807.996 3100.14 810.165 3098.27 811.924C3096.51 813.683 3094.41 814.562 3091.95 814.562Z" fill="white"/>
<path d="M3125.61 821.773C3125.61 815.324 3126.67 809.872 3128.77 805.417C3130.88 800.961 3134.21 797.737 3138.78 795.743C3143.46 793.633 3149.66 792.871 3157.38 793.457V805.241C3150.36 804.654 3145.51 805.827 3142.81 808.758C3140.12 811.572 3138.78 815.911 3138.78 821.773V832.15H3158.08V844.462H3138.78V920.09H3125.61V844.462H3113.33V832.15H3125.61V821.773Z" fill="white"/>
<path d="M3308.24 796.974V920.09H3294.02L3228.38 819.487V920.09H3214.34V796.974H3228.55L3294.19 897.401V796.974H3308.24Z" fill="white"/>
<path d="M3397.06 832.15H3409.17V903.909C3409.17 914.696 3406.77 923.901 3401.97 931.522C3397.18 939.261 3390.21 945.123 3381.09 949.11C3371.96 953.214 3360.85 955.266 3347.74 955.266L3345.63 943.13C3362.13 942.895 3374.65 939.437 3383.19 932.753C3391.74 926.187 3396.01 916.572 3396.01 903.909V901.974L3397.41 902.326C3394.72 907.485 3390.68 911.941 3385.3 915.693C3379.92 919.328 3372.96 921.204 3364.41 921.321C3356.34 921.321 3349.26 919.504 3343.18 915.869C3337.21 912.117 3332.53 906.84 3329.14 900.04C3325.86 893.239 3324.22 885.266 3324.22 876.12C3324.22 866.974 3325.86 859.06 3329.14 852.376C3332.53 845.576 3337.21 840.299 3343.18 836.547C3349.26 832.795 3356.34 830.919 3364.41 830.919C3369.68 830.919 3374.36 831.74 3378.46 833.381C3382.55 834.906 3386.06 837.016 3388.99 839.713C3391.91 842.293 3394.31 845.224 3396.18 848.507L3397.06 832.15ZM3338.44 876.12C3338.44 886.204 3341.01 894.236 3346.16 900.215C3351.43 906.078 3358.5 909.009 3367.4 909.009C3372.78 909.009 3377.64 907.72 3381.97 905.14C3386.29 902.561 3389.69 898.808 3392.15 893.884C3394.72 888.959 3396.01 883.038 3396.01 876.12C3396.01 869.202 3394.72 863.339 3392.15 858.532C3389.69 853.607 3386.29 849.855 3381.97 847.276C3377.64 844.579 3372.78 843.231 3367.4 843.231C3358.62 843.231 3351.6 846.221 3346.34 852.2C3341.07 858.18 3338.44 866.154 3338.44 876.12Z" fill="white"/>
<path d="M3484.02 920.09L3482.96 904.261C3480.51 909.654 3476.88 913.875 3472.08 916.924C3467.29 919.855 3461.2 921.321 3453.83 921.321C3447.51 921.321 3442.13 920.324 3437.68 918.331C3433.24 916.338 3429.78 913.524 3427.33 909.889C3424.99 906.137 3423.82 901.74 3423.82 896.698C3423.82 889.311 3426.57 883.272 3432.07 878.582C3437.56 873.775 3445.52 870.844 3455.94 869.788L3482.96 866.798V859.763C3482.96 854.839 3481.15 850.911 3477.52 847.979C3473.9 844.931 3468.98 843.406 3462.78 843.406C3456.7 843.406 3451.61 844.814 3447.51 847.628C3443.53 850.442 3440.78 854.487 3439.26 859.763L3427.33 855.542C3429.67 847.803 3433.94 841.765 3440.14 837.427C3446.46 833.088 3454.12 830.919 3463.13 830.919C3473.55 830.919 3481.62 833.616 3487.35 839.009C3493.2 844.286 3496.13 851.497 3496.13 860.643V920.09H3484.02ZM3482.96 878.055L3455.76 881.22C3449.91 881.924 3445.46 883.566 3442.42 886.145C3439.38 888.607 3437.86 891.891 3437.86 895.994C3437.86 900.098 3439.32 903.381 3442.25 905.844C3445.29 908.306 3449.62 909.537 3455.23 909.537C3461.67 909.537 3466.93 908.247 3471.03 905.668C3475.12 903.088 3478.11 899.629 3479.98 895.291C3481.97 890.835 3482.96 886.028 3482.96 880.869V878.055Z" fill="white"/>
<path d="M3514.79 832.15H3526.9L3527.6 844.638C3530.41 840.299 3534.1 836.958 3538.66 834.613C3543.22 832.15 3548.55 830.919 3554.63 830.919C3561.3 830.919 3567.15 832.385 3572.18 835.316C3577.21 838.13 3581.13 842.41 3583.94 848.155C3586.75 853.783 3588.15 860.877 3588.15 869.437V920.09H3574.99V871.02C3574.99 861.874 3573 854.956 3569.02 850.266C3565.16 845.458 3559.54 843.055 3552.17 843.055C3544.57 843.055 3538.6 845.576 3534.27 850.618C3530.06 855.659 3527.95 863.105 3527.95 872.954V920.09H3514.79V832.15Z" fill="white"/>
<path d="M3608.6 917.803V832.15H3621.76V917.979C3621.76 925.601 3620.24 932.167 3617.2 937.678C3614.27 943.189 3610.29 947.41 3605.26 950.341C3600.35 953.39 3594.97 955.031 3589.11 955.266L3587.18 943.13C3593.97 942.544 3599.24 940.023 3602.98 935.567C3606.72 931.229 3608.6 925.308 3608.6 917.803ZM3615.27 814.562C3617.84 814.562 3620.01 813.683 3621.76 811.924C3623.52 810.165 3624.39 807.996 3624.39 805.417C3624.39 802.72 3623.52 800.492 3621.76 798.733C3620.01 796.974 3617.84 796.095 3615.27 796.095C3612.69 796.095 3610.47 796.974 3608.6 798.733C3606.84 800.492 3605.96 802.72 3605.96 805.417C3605.96 807.996 3606.84 810.165 3608.6 811.924C3610.47 813.683 3612.69 814.562 3615.27 814.562Z" fill="white"/>
<path d="M3715.48 920.09H3703.55L3702.67 907.426C3699.98 911.882 3696.35 915.341 3691.79 917.803C3687.22 920.148 3681.9 921.321 3675.81 921.321C3669.03 921.321 3663.12 919.914 3658.09 917.1C3653.06 914.286 3649.14 910.065 3646.33 904.437C3643.64 898.808 3642.29 891.715 3642.29 883.155V832.15H3655.28V881.748C3655.28 890.777 3657.21 897.636 3661.07 902.326C3665.05 906.899 3670.73 909.185 3678.1 909.185C3685.59 909.185 3691.49 906.782 3695.82 901.974C3700.27 897.05 3702.49 889.663 3702.49 879.813V832.15H3715.48V920.09Z" fill="white"/>
<path d="M3735.23 793.457H3748.57V870.316H3756.64L3791.22 832.15H3809.82L3768.4 876.12L3810 920.09H3791.22L3756.64 881.748H3748.57V920.09H3735.23V793.457Z" fill="white"/>
</svg>
