<svg width="793" height="1063" viewBox="0 0 793 1063" fill="none" xmlns="http://www.w3.org/2000/svg">
<path fill-rule="evenodd" clip-rule="evenodd" d="M259.646 1043.13C259.646 1043.13 137.816 1006.46 59.0179 878.863C-7.55259 771.066 -37.7657 590.567 77.5008 438.537C305.258 138.137 319.605 0 319.605 0C319.605 0 741.689 351.187 510.693 662.724C356.135 871.171 459.379 1062.21 459.379 1062.21C459.379 1062.21 212.246 826.691 317.479 647.222C419.554 473.139 341.963 369.075 341.963 369.075C341.963 369.075 211.484 490.41 163.953 647.222C116.421 804.034 259.646 1043.13 259.646 1043.13Z" fill="#265780"/>
<path d="M761.983 835.072C855.601 591.378 703.781 422.461 703.781 422.461C703.781 422.461 701.499 606.579 548.681 741.527C461.288 818.701 434.547 912.152 501.554 968.239C586.263 1039.14 720.827 942.203 761.983 835.072Z" fill="#FFB805"/>
</svg>
